<?xml version="1.0" standalone="no"?>
<!DOCTYPE svg PUBLIC "-//W3C//DTD SVG 1.1//EN" "http://www.w3.org/Graphics/SVG/1.1/DTD/svg11.dtd" >
<svg xmlns="http://www.w3.org/2000/svg">
<metadata></metadata>
<defs>
<font id="platformbold" horiz-adv-x="974" >
<font-face units-per-em="2048" ascent="1690" descent="-358" />
<missing-glyph horiz-adv-x="307" />
<glyph horiz-adv-x="2048" />
<glyph horiz-adv-x="2048" />
<glyph unicode="&#xd;" horiz-adv-x="2048" />
<glyph unicode=" "  horiz-adv-x="307" />
<glyph unicode="&#x09;" horiz-adv-x="307" />
<glyph unicode="&#xa0;" horiz-adv-x="307" />
<glyph unicode="!" horiz-adv-x="516" d="M59 176q0 83 59 141t142 58q82 0 139.5 -58t57.5 -141q0 -82 -57.5 -140.5t-139.5 -58.5q-83 0 -142 58.5t-59 140.5zM92 414v1003l332 -2v-1001h-332z" />
<glyph unicode="&#x22;" horiz-adv-x="823" d="M66 858v559h294v-559h-294zM463 858v559h295v-559h-295z" />
<glyph unicode="#" horiz-adv-x="1292" d="M33 332v264h213l63 262h-151v264h215l71 295h291l-71 -295h163l72 295h289l-72 -295h144v-264h-209l-64 -262h148v-264h-213l-80 -332h-285l80 332h-168l-80 -332h-287l80 332h-149zM535 596h165l64 262h-166z" />
<glyph unicode="$" horiz-adv-x="1042" d="M43 444h287q-7 -164 106 -200v346l-16 8l-82 35q-140 63 -211.5 162t-71.5 254q0 152 103.5 260t277.5 129v116h164v-114q129 -15 212 -77.5t115.5 -153t26.5 -208.5h-268q0 129 -86 173v-312l10 -4l84 -37q98 -42 162 -95t103.5 -136.5t39.5 -194.5q0 -171 -108.5 -282 t-290.5 -133v-121h-164v118q-95 9 -167.5 42.5t-115.5 80t-69.5 107.5t-35 118.5t-5.5 118.5zM352 1061q0 -44 20 -72t64 -53v244q-84 -27 -84 -119zM600 246q92 31 92 131q0 51 -22.5 81.5t-69.5 55.5v-268z" />
<glyph unicode="%" horiz-adv-x="1646" d="M27 1077q0 154 99.5 254.5t256.5 100.5q165 0 266 -100t101 -255q0 -153 -100.5 -252.5t-262.5 -99.5t-261 99t-99 253zM172 0l1032 1417h279l-1032 -1417h-279zM276 1079q0 -52 30.5 -85t80.5 -33q56 0 84.5 33t28.5 85t-30.5 84.5t-82.5 32.5q-54 0 -82.5 -33 t-28.5 -84zM897 340q0 153 99.5 253.5t256.5 100.5q165 0 266 -100t101 -254q0 -153 -100.5 -252.5t-262.5 -99.5t-261 99t-99 253zM1147 342q0 -52 30 -85.5t80 -33.5q56 0 84.5 33t28.5 86q0 52 -30.5 84.5t-82.5 32.5q-54 0 -82 -33t-28 -84z" />
<glyph unicode="&#x26;" horiz-adv-x="1396" d="M27 426q0 126 58 227t165 156q-90 103 -90 250q0 166 117 273.5t309 107.5q205 0 319.5 -106.5t114.5 -274.5q0 -133 -74 -222t-182 -112l170 -178q25 106 22 213h322q9 -276 -107 -467l281 -293h-412l-73 76q-164 -99 -361 -99q-270 0 -424.5 125.5t-154.5 323.5z M375 475q0 -89 66 -145t173 -56q71 0 134 23l-310 317q-63 -49 -63 -139zM469 1049q0 -52 37 -86.5t90 -34.5t88 36t35 91q-1 51 -37 83.5t-90 32.5t-88.5 -34.5t-34.5 -87.5z" />
<glyph unicode="'" horiz-adv-x="425" d="M66 858v559h294v-559h-294z" />
<glyph unicode="(" horiz-adv-x="577" d="M66 111v1079q0 226 118 347.5t359 121.5v-293q-88 0 -127 -44t-39 -126v-1092q0 -82 39 -126t127 -44v-292q-241 0 -359 120.5t-118 348.5z" />
<glyph unicode=")" horiz-adv-x="577" d="M35 -66q88 0 127 44t39 126v1092q0 82 -39 126t-127 44v293q241 0 359 -121.5t118 -347.5v-1079q0 -228 -118 -348.5t-359 -120.5v292z" />
<glyph unicode="*" horiz-adv-x="843" d="M51 961l154 88l-154 88l109 186l153 -88v182h217v-182l154 88l107 -186l-152 -88l154 -86l-109 -189l-154 90v-184h-217v184l-153 -90z" />
<glyph unicode="+" horiz-adv-x="972" d="M61 553v274h279v291h293v-291h278v-274h-278v-293h-293v293h-279z" />
<glyph unicode="," horiz-adv-x="462" d="M31 180q-2 85 55 142t147 57q88 0 143.5 -57t55.5 -144q0 -83 -47 -172l-121 -235h-223l123 227q-58 18 -95 66t-38 116z" />
<glyph unicode="-" horiz-adv-x="659" d="M57 432v307h545v-307h-545z" />
<glyph unicode="." horiz-adv-x="462" d="M31 178q0 87 56.5 144t143.5 57t144 -57t57 -144q0 -86 -57.5 -144.5t-143.5 -58.5t-143 58t-57 145z" />
<glyph unicode="/" horiz-adv-x="966" d="M-12 -358l690 1855h301l-692 -1855h-299z" />
<glyph unicode="0" horiz-adv-x="1093" d="M72 459v504q0 225 119.5 353t355.5 128q230 0 352.5 -129.5t122.5 -351.5v-504q0 -224 -125 -355t-354 -131q-238 0 -354.5 128t-116.5 358zM414 455q0 -70 32 -113t101 -43t101 43t32 113v508q0 70 -32 112.5t-101 42.5t-101 -42.5t-32 -112.5v-508z" />
<glyph unicode="1" horiz-adv-x="575" d="M25 1028v324l151 65h318v-1417h-342v1073z" />
<glyph unicode="2" horiz-adv-x="1050" d="M51 981q-2 62 9 121.5t43 123t82 110.5t135 77.5t194 30.5q118 0 210.5 -34.5t151 -95t89 -140.5t30.5 -173q0 -73 -15.5 -134.5t-49 -115.5t-69 -95.5t-91.5 -94.5l-264 -256h498v-305h-947v299l437 432q77 77 113 132t36 120t-35 100t-96 35q-65 0 -94 -43.5t-29 -93.5 h-338z" />
<glyph unicode="3" horiz-adv-x="1048" d="M33 438h338q0 -60 36 -102.5t107 -42.5q63 0 101 40t38 105q0 67 -38 104.5t-109 37.5h-213v268l254 264h-463v305h858v-303l-260 -248q324 -67 324 -420q0 -215 -140 -344t-352 -129q-112 0 -199 29t-139 75t-85.5 109.5t-45.5 124t-12 127.5z" />
<glyph unicode="4" horiz-adv-x="1148" d="M29 371v280l600 766h336v-753h143v-293h-143v-371h-332v371h-604zM377 664h256v323z" />
<glyph unicode="5" horiz-adv-x="1062" d="M72 438h338q3 -65 37 -102t98 -37q66 0 100.5 44t34.5 116v33q0 155 -135 155q-89 0 -119 -74h-332v844h842v-305h-514v-207q20 20 77.5 41t131.5 21q387 0 387 -461v-51q0 -76 -17 -145t-54 -131t-91 -107.5t-134 -72t-177 -26.5q-127 0 -220 35t-147.5 99.5t-80 146.5 t-25.5 184z" />
<glyph unicode="6" horiz-adv-x="1069" d="M72 451v448q0 91 17 169.5t56.5 148.5t99.5 119.5t151.5 78.5t207.5 29q221 0 357 -117l-173 -262q-77 53 -170 53q-117 0 -163 -56.5t-43 -154.5q19 21 78.5 43.5t136.5 22.5q199 0 295 -116.5t96 -356.5v-51q0 -133 -52 -239t-162 -171.5t-263 -65.5q-237 0 -353 127 t-116 351zM410 451q0 -70 32 -113t103 -43q69 0 102 43t33 113v49q0 155 -135 155t-135 -153v-51z" />
<glyph unicode="7" horiz-adv-x="985" d="M33 1112v305h907v-215l-440 -1202h-383l415 1112h-499z" />
<glyph unicode="8" horiz-adv-x="1067" d="M37 412q0 205 160 317q-138 108 -138 297q0 62 16.5 120.5t53 113t90.5 95t134.5 65t178.5 24.5t179 -24t135 -64t91.5 -94.5t54 -113.5t16.5 -122q0 -190 -140 -297q162 -105 162 -317q0 -86 -29.5 -162.5t-88.5 -138.5t-157 -99.5t-225 -38.5q-127 1 -224.5 38 t-154.5 99t-85.5 138.5t-28.5 163.5zM385 424q0 -67 42.5 -108.5t107.5 -41.5q67 0 108 41t41 109t-41 108.5t-108 40.5q-66 0 -108 -41t-42 -108zM397 1010q0 -60 37.5 -99t97.5 -39q61 0 99.5 39t38.5 99t-38.5 98.5t-99.5 38.5t-98 -38t-37 -99z" />
<glyph unicode="9" horiz-adv-x="1069" d="M51 918v51q0 99 29.5 184t86.5 150.5t148 103t207 37.5q237 0 356 -127t119 -350v-447q0 -121 -28 -217.5t-87.5 -172t-163 -116.5t-245.5 -41q-215 0 -364 115l172 264q77 -53 184 -53q203 0 192 211q-17 -22 -72 -44t-122 -22q-412 0 -412 474zM389 918 q0 -156 135 -156t135 153v52q0 70 -33 112.5t-104 42.5q-69 0 -101 -42.5t-32 -112.5v-49z" />
<glyph unicode=":" horiz-adv-x="462" d="M31 178q0 87 56.5 144t143.5 57t144 -57t57 -144q0 -86 -57.5 -144.5t-143.5 -58.5t-143 58t-57 145zM31 893q0 87 56.5 144t143.5 57t144 -57t57 -144q0 -86 -57.5 -144.5t-143.5 -58.5t-143 58t-57 145z" />
<glyph unicode=";" horiz-adv-x="462" d="M29 893q0 87 56.5 144t143.5 57t144 -57t57 -144q0 -86 -57.5 -144.5t-143.5 -58.5t-143 58t-57 145zM31 180q-2 85 55 142t147 57q88 0 143.5 -57t55.5 -144q0 -83 -47 -172l-121 -235h-223l123 227q-58 18 -95 66t-38 116z" />
<glyph unicode="&#x3c;" horiz-adv-x="860" d="M57 549v278l742 322v-289l-424 -164l424 -166v-292z" />
<glyph unicode="=" horiz-adv-x="972" d="M61 371v262h850v-262h-850zM61 723v262h850v-262h-850z" />
<glyph unicode="&#x3e;" horiz-adv-x="839" d="M61 238v292l404 166l-404 164v289l721 -322v-278z" />
<glyph unicode="?" horiz-adv-x="983" d="M37 1010q-2 48 6 98.5t37 111.5t76.5 107.5t135 78.5t202.5 32q213 0 331.5 -114.5t118.5 -291.5q0 -156 -88 -251.5t-221 -108.5v-258h-326v493h178q60 0 93.5 31.5t33.5 91.5q0 54 -33 88.5t-89 34.5q-67 0 -95 -43t-28 -100h-332zM274 176q0 83 58 141t141 58t141 -58 t58 -141t-58 -141t-141 -58t-141 58t-58 141z" />
<glyph unicode="@" horiz-adv-x="1955" d="M41 575q0 274 122.5 487.5t340.5 330t495 116.5q215 0 389 -60t289 -167.5t176.5 -254.5t61.5 -322q0 -247 -122.5 -400t-324.5 -153q-85 0 -145 29.5t-90 76.5q-43 -48 -115 -78t-149 -30q-205 0 -326 121.5t-121 310.5q0 182 119 310t303 128q112 0 182 -51v41h281 v-510q0 -54 22 -81.5t74 -27.5q66 0 106 84t40 209q0 285 -171 436.5t-485 151.5q-156 0 -285 -54.5t-213.5 -147.5t-131 -216.5t-46.5 -263.5q0 -205 92 -360t256 -237.5t377 -82.5q136 0 264.5 47t215.5 119l143 -178q-102 -103 -268 -166.5t-359 -63.5q-228 0 -417 70 t-315 192t-195.5 288t-69.5 357zM819 586q0 -68 41.5 -113t108.5 -45q69 0 108 44t39 114q0 69 -39.5 113t-107.5 44t-109 -44t-41 -113z" />
<glyph unicode="A" horiz-adv-x="1347" d="M-16 0l495 1417h361l524 -1417h-363l-118 338h-447l-117 -338h-335zM535 625h249l-125 358z" />
<glyph unicode="B" horiz-adv-x="1067" d="M82 0v1417h485q214 0 324 -102.5t110 -286.5q0 -91 -39.5 -168t-103.5 -112q88 -46 130 -124t42 -202q0 -195 -117 -308.5t-313 -113.5h-518zM420 297h127q60 0 95.5 39t35.5 102q0 66 -35.5 103t-95.5 37h-127v-281zM420 866h115q55 0 86.5 33.5t31.5 95.5t-31 95.5 t-87 33.5h-115v-258z" />
<glyph unicode="C" horiz-adv-x="1292" d="M41 707q0 153 53.5 288t149.5 234.5t237 157t307 57.5q286 0 480 -168l-203 -258q-115 106 -272 106q-183 0 -288.5 -117.5t-105.5 -297.5q0 -178 110 -297t286 -119q148 0 270 106l201 -241q-195 -185 -471 -185q-173 0 -316 56.5t-238.5 155t-147.5 233t-52 289.5z" />
<glyph unicode="D" horiz-adv-x="1202" d="M82 0v1417h324q353 0 554 -186t201 -518t-201.5 -522.5t-553.5 -190.5h-324zM424 301h6q170 0 272 104q104 106 104 306q0 199 -102 303q-100 102 -273 102h-7v-815z" />
<glyph unicode="E" horiz-adv-x="821" d="M82 0v1417h672v-319h-330v-219h319v-316h-319v-244h336v-319h-678z" />
<glyph unicode="F" horiz-adv-x="819" d="M82 0v1417h680v-319h-338v-219h328v-316h-328v-563h-342z" />
<glyph unicode="G" horiz-adv-x="1507" d="M41 711q0 147 52.5 280t146 233.5t233 160t303.5 59.5q219 0 368 -81t234 -218l-270 -195q-122 174 -334 174q-167 0 -272 -115t-105 -298q0 -189 112 -304.5t284 -115.5q107 0 185 33t118 75v103h-211v280h547v-782h-330v70q-122 -95 -326 -95q-217 0 -384 91.5 t-259 259t-92 385.5z" />
<glyph unicode="H" horiz-adv-x="1339" d="M82 0v1417h342v-532h491v532h342v-1417h-342v559h-491v-559h-342z" />
<glyph unicode="I" horiz-adv-x="505" d="M82 0v1417h342v-1417h-342z" />
<glyph unicode="J" horiz-adv-x="624" d="M37 0v315h80q86 2 86 99v1003h342v-1044q0 -89 -16.5 -153.5t-56.5 -116.5t-115 -78.5t-185 -26.5q-90 0 -135 2z" />
<glyph unicode="K" horiz-adv-x="1189" d="M82 0v1417h342v-555l387 555h395l-497 -678l495 -739h-399l-381 580v-580h-342z" />
<glyph unicode="L" horiz-adv-x="786" d="M82 0v1417h342v-1098h324v-319h-666z" />
<glyph unicode="M" horiz-adv-x="1804" d="M82 0v1417h512l313 -960l314 960h501v-1417h-329v995l-336 -995h-324l-336 995v-995h-315z" />
<glyph unicode="N" horiz-adv-x="1378" d="M82 0v1417h352l533 -856v856h329v-1417h-338l-546 838v-838h-330z" />
<glyph unicode="O" horiz-adv-x="1568" d="M41 707q0 205 92 373t261 266t382 98q226 0 398.5 -96.5t263 -262t90.5 -372.5t-89.5 -374.5t-260 -266.5t-392.5 -99q-170 0 -311 56t-235.5 154.5t-146.5 233t-52 290.5zM399 709q0 -179 106 -297.5t279 -118.5q181 0 283 118t102 298q0 179 -104.5 297t-282.5 118 q-181 0 -282 -117t-101 -298z" />
<glyph unicode="P" horiz-adv-x="1030" d="M82 0v1417h487q220 0 333.5 -109.5t113.5 -312.5q0 -197 -120.5 -313.5t-324.5 -116.5h-149v-565h-340zM422 860h119q58 0 90.5 36t32.5 97q0 59 -33 94t-90 35h-119v-262z" />
<glyph unicode="Q" horiz-adv-x="1568" d="M41 707q0 205 92 373t261 266t382 98q226 0 398.5 -96.5t263 -262t90.5 -372.5q0 -206 -103 -379l121 -101l-209 -249l-133 112q-184 -123 -418 -123q-170 0 -311 56t-235.5 154.5t-146.5 233t-52 290.5zM393 709q0 -182 107 -302t284 -120q87 0 160 28l-96 82l207 248 l100 -86q21 82 21 150q0 183 -106 302t-288 119q-183 0 -286 -118t-103 -303z" />
<glyph unicode="R" horiz-adv-x="1136" d="M82 0v1417h487q220 0 333.5 -109.5t113.5 -312.5q0 -238 -180 -348l323 -647h-366l-279 582h-92v-582h-340zM422 860h119q58 0 90.5 36t32.5 97q0 59 -33 94t-90 35h-119v-262z" />
<glyph unicode="S" horiz-adv-x="1040" d="M43 444h324v-12q1 -68 31 -115q34 -51 112 -51q60 0 97.5 32.5t37.5 92.5q0 56 -37 90.5t-112 63.5q-175 70 -222 94q-106 55 -162.5 155t-56.5 230q0 187 125.5 303.5t331.5 116.5q122 0 211 -33.5t140 -94t73 -139.5q17 -64 17 -140q0 -18 -1 -36h-315v8q0 63 -31 101 q-33 42 -92 41q-56 0 -86.5 -30t-30.5 -77q0 -45 29.5 -77.5t99.5 -59.5l179 -69q144 -59 218 -158t74 -252q0 -212 -134.5 -333.5t-352.5 -121.5q-117 0 -205 29.5t-138.5 76t-80.5 111t-38 125.5q-6 41 -6 86q0 21 1 43z" />
<glyph unicode="T" horiz-adv-x="880" d="M33 1098v319h815v-319h-236v-1098h-342v1098h-237z" />
<glyph unicode="U" horiz-adv-x="1318" d="M76 565v852h342v-852q0 -125 61 -197.5t183 -72.5q118 0 178.5 73.5t60.5 198.5v850h342v-850q0 -129 -37.5 -237t-109 -188t-184 -124.5t-255.5 -44.5q-195 0 -327 75t-193 205.5t-61 311.5z" />
<glyph unicode="V" horiz-adv-x="1378" d="M-16 1417h383l331 -985l332 985h365l-523 -1417h-370z" />
<glyph unicode="W" horiz-adv-x="2033" d="M-10 1417h375l231 -964l248 964h366l248 -964l232 964h354l-381 -1417h-401l-244 891l-246 -891h-391z" />
<glyph unicode="X" horiz-adv-x="1304" d="M-16 0l465 731l-449 686h416l248 -389l239 389h402l-445 -696l461 -721h-395l-281 432q-64 -96 -123 -187.5t-101.5 -159.5t-53.5 -85h-383z" />
<glyph unicode="Y" horiz-adv-x="1085" d="M-25 1417h379l197 -387l199 387h360l-401 -715v-702h-340v696z" />
<glyph unicode="Z" horiz-adv-x="1183" d="M51 0v223l592 881h-588v313h1073v-221l-602 -885h607v-311h-1082z" />
<glyph unicode="[" horiz-adv-x="577" d="M66 -358v2017h477v-295h-166v-1427h164v-295h-475z" />
<glyph unicode="\" horiz-adv-x="966" d="M-12 1497h301l690 -1855h-299z" />
<glyph unicode="]" horiz-adv-x="577" d="M35 1364v295h477v-2017h-475v295h164v1427h-166z" />
<glyph unicode="^" horiz-adv-x="1067" d="M31 788l338 629h331l336 -629h-336l-168 318l-170 -318h-331z" />
<glyph unicode="_" horiz-adv-x="1259" d="M57 -43h1145v-262h-1145v262z" />
<glyph unicode="`" d="M180 1450h322l153 -287h-307z" />
<glyph unicode="a" d="M35 362v6q1 159 101 256q102 99 272 99q117 0 180 -39v45q0 52 -25 85.5t-82 33.5q-53 0 -76.5 -28t-23.5 -66h-305q5 170 105.5 262t297.5 92q100 0 176 -21.5t124.5 -58t79 -92t42.5 -117.5t12 -139v-680h-270v59q-80 -71 -225 -71q-165 0 -273.5 101.5t-109.5 272.5z M344 371q0 -54 35.5 -88.5t89.5 -34.5t89.5 34.5t35.5 88.5q0 55 -36 88t-91 33q-54 0 -88.5 -34t-34.5 -87z" />
<glyph unicode="b" horiz-adv-x="1257" d="M66 0v1497h329v-477q45 40 123 67t168 27q248 0 393.5 -154.5t145.5 -410.5q0 -162 -68.5 -291t-197 -202.5t-295.5 -73.5q-83 0 -159 24t-130 68v-74h-309zM385 549q0 -120 71 -196.5t187 -76.5q119 0 186.5 76.5t67.5 196.5q0 121 -69.5 197.5t-186.5 76.5 q-120 0 -188 -76t-68 -198z" />
<glyph unicode="c" horiz-adv-x="972" d="M33 545q0 157 72 287t202.5 206t292.5 76q225 0 371 -135l-183 -234q-81 72 -184 72q-114 0 -179 -75.5t-65 -194.5q0 -123 72 -195.5t174 -72.5t182 71l183 -233q-60 -55 -153.5 -95t-213.5 -40q-172 0 -303 75t-199.5 202.5t-68.5 285.5z" />
<glyph unicode="d" horiz-adv-x="1257" d="M33 545q0 156 68 285.5t195.5 206.5t289.5 77q168 0 276 -67v450h330v-1497h-303v72q-109 -90 -289 -90q-256 0 -411.5 157.5t-155.5 405.5zM360 549q0 -117 71.5 -195t184.5 -78q118 0 187 77.5t69 195.5t-70.5 196t-185.5 78q-117 0 -186.5 -77.5t-69.5 -196.5z" />
<glyph unicode="e" horiz-adv-x="1136" d="M33 543q0 163 67.5 293t190.5 204t280 74q250 0 394.5 -149.5t144.5 -397.5q0 -72 -4 -127h-731q11 -78 69.5 -123t153.5 -45q141 0 223 129l252 -147q-25 -52 -63 -97t-95 -86t-139.5 -65t-179.5 -24q-254 0 -408.5 151t-154.5 410zM383 672h385q-6 71 -58.5 119.5 t-138.5 48.5q-82 0 -132 -49t-56 -119z" />
<glyph unicode="f" horiz-adv-x="622" d="M27 819v277h96v37q0 177 85 271.5t286 94.5q63 0 100 -2v-272h-51q-90 0 -90 -99v-30h141v-277h-141v-819h-330v819h-96z" />
<glyph unicode="g" horiz-adv-x="1251" d="M33 545q0 156 69 285.5t197.5 206.5t290.5 77q186 0 291 -88v70h309v-914q0 -559 -596 -559q-221 0 -393 90l98 256q133 -63 297 -63q117 0 191 41.5t75 118.5q-96 -84 -260 -84q-256 0 -412.5 156t-156.5 407zM360 547q0 -117 71.5 -195t184.5 -78q118 0 187 77.5 t69 195.5t-70.5 196t-185.5 78q-117 0 -186.5 -77.5t-69.5 -196.5z" />
<glyph unicode="h" horiz-adv-x="1019" d="M66 0v1497h329v-471q89 82 221 82q94 0 162 -30t106.5 -85t56 -122t17.5 -150v-721h-329v682q0 62 -30 97.5t-87 35.5q-56 0 -86.5 -35t-30.5 -96v-684h-329z" />
<glyph unicode="i" horiz-adv-x="460" d="M39 1325q0 78 54 133t132 55t133.5 -55t55.5 -133q0 -77 -55.5 -131.5t-133.5 -54.5t-132 54.5t-54 131.5zM66 0v1096h329v-1096h-329z" />
<glyph unicode="j" horiz-adv-x="462" d="M-70 -80h54q51 1 67.5 27t16.5 71v1078h329v-1080q0 -86 -18.5 -152.5t-60 -118t-114.5 -78.5t-175 -27q-54 0 -99 2v278zM43 1325q0 78 54 133t132 55t133.5 -55t55.5 -133q0 -77 -55.5 -131.5t-133.5 -54.5t-132 54.5t-54 131.5z" />
<glyph unicode="k" horiz-adv-x="1062" d="M66 0v1497h329v-809l275 408h379l-357 -502l371 -594h-397l-271 461v-461h-329z" />
<glyph unicode="l" horiz-adv-x="460" d="M66 0v1497h329v-1497h-329z" />
<glyph unicode="m" horiz-adv-x="1591" d="M66 0v1096h329v-70q82 82 230 82q167 0 254 -100q109 100 268 100q103 0 179 -30.5t119.5 -84.5t64 -122t20.5 -150v-721h-330v682q0 61 -31 97t-88 36t-87.5 -38t-30.5 -95v-682h-330v682q0 61 -31 97t-88 36q-56 0 -87.5 -35t-31.5 -96v-684h-329z" />
<glyph unicode="n" horiz-adv-x="1019" d="M66 0v1096h329v-70q89 82 221 82q94 0 162 -30t106.5 -85t56 -122t17.5 -150v-721h-329v682q0 62 -30 97.5t-87 35.5q-56 0 -86.5 -35t-30.5 -96v-684h-329z" />
<glyph unicode="o" horiz-adv-x="1218" d="M33 545q0 158 72.5 288t204 205.5t296.5 75.5q175 0 308 -75t202.5 -202t69.5 -286t-71 -288.5t-204 -205t-303 -75.5q-172 0 -304 74.5t-201.5 202t-69.5 286.5zM360 547q0 -116 70 -192t180 -76q114 0 181 75.5t67 192.5t-69.5 193.5t-180.5 76.5q-114 0 -181 -76 t-67 -194z" />
<glyph unicode="p" horiz-adv-x="1257" d="M66 -358v1454h309v-70q121 88 305 88q248 0 396.5 -157t148.5 -406q0 -118 -38.5 -221.5t-109.5 -181t-177.5 -122t-235.5 -44.5q-80 0 -151.5 19.5t-117.5 49.5v-409h-329zM385 547q0 -120 71 -196.5t187 -76.5q119 0 186.5 76.5t67.5 196.5q0 121 -69.5 197.5 t-186.5 76.5q-120 0 -188 -76t-68 -198z" />
<glyph unicode="q" horiz-adv-x="1257" d="M33 549q0 120 40 224t112 179.5t178 118.5t233 43q87 0 164.5 -23.5t122.5 -64.5v70h309v-1454h-330v409q-38 -30 -113.5 -49.5t-152.5 -19.5q-253 0 -408 156t-155 411zM360 549q0 -119 71 -197t187 -78q117 0 185.5 77.5t68.5 197.5q0 118 -71.5 195t-184.5 77 q-119 0 -187.5 -76.5t-68.5 -195.5z" />
<glyph unicode="r" horiz-adv-x="616" d="M66 0v1096h329v-76q63 82 193 82v-346h-82q-63 0 -87 -24.5t-24 -78.5v-653h-329z" />
<glyph unicode="s" horiz-adv-x="894" d="M35 360h313v-8q0 -106 101 -106q42 0 68 17.5t26 49.5q0 34 -19.5 52t-70.5 28q-81 16 -166 43q-234 80 -234 332q0 156 112.5 249t285.5 93q183 0 287.5 -87t105.5 -269h-301q-3 106 -99 106q-37 0 -58 -18t-21 -49q0 -59 88 -76q121 -26 133 -29q146 -41 211 -117.5 t65 -222.5q0 -93 -34 -164.5t-93.5 -113.5t-132.5 -63t-158 -21q-94 0 -167.5 21t-119.5 56t-75 83q-28 50 -39 102q-9 41 -9 87q0 12 1 25z" />
<glyph unicode="t" horiz-adv-x="645" d="M27 819v277h96v174h330v-174h145v-277h-145v-436q0 -54 22 -76t68 -22h55v-277q-51 -20 -166 -20q-154 0 -231.5 77t-77.5 220v534h-96z" />
<glyph unicode="u" horiz-adv-x="1013" d="M61 377v719h330v-680q0 -133 111 -133q56 0 86 36t30 97v680h330v-1096h-327v70q-28 -30 -82.5 -56t-135.5 -26q-176 0 -259 104t-83 285z" />
<glyph unicode="v" horiz-adv-x="1101" d="M-2 1096h364l201 -680l201 680h340l-367 -1096h-364z" />
<glyph unicode="w" horiz-adv-x="1679" d="M2 1096h373l147 -672l158 672h350l156 -672l149 672h342l-291 -1096h-364l-174 618l-168 -618h-371z" />
<glyph unicode="x" horiz-adv-x="1122" d="M-2 0l381 557l-365 539h379l178 -267l179 267h358l-363 -529l379 -567h-366l-203 299l-205 -299h-352z" />
<glyph unicode="y" horiz-adv-x="1103" d="M-2 1096h362l207 -588l205 588h336l-541 -1454h-317l149 417z" />
<glyph unicode="z" horiz-adv-x="880" d="M41 0v233l391 590h-387v273h795v-234l-406 -590h406v-272h-799z" />
<glyph unicode="{" horiz-adv-x="659" d="M25 504v307q76 0 99 31.5t23 105.5v242q0 226 118.5 347.5t359.5 121.5v-295q-166 0 -166 -168v-324q0 -100 -44.5 -151.5t-113.5 -65.5q69 -14 113.5 -65.5t44.5 -151.5v-334q0 -167 166 -167v-295q-241 0 -359.5 121t-118.5 348v256q0 74 -23 105.5t-99 31.5z" />
<glyph unicode="|" horiz-adv-x="518" d="M123 -358v1855h272v-1855h-272z" />
<glyph unicode="}" horiz-adv-x="659" d="M35 -63q166 0 166 167v334q0 100 44 151.5t113 65.5q-69 14 -113 65.5t-44 151.5v324q0 168 -166 168v295q241 0 359 -121.5t118 -347.5v-242q0 -73 23.5 -105t99.5 -32v-307q-76 0 -99.5 -32t-23.5 -105v-256q0 -228 -118 -348.5t-359 -120.5v295z" />
<glyph unicode="~" horiz-adv-x="976" d="M33 420q-5 174 81 282.5t236 108.5q72 0 144 -35q12 -6 38.5 -19.5t43 -19.5t34.5 -6q30 0 46 22.5t16 61.5h272q4 -182 -80 -288.5t-229 -106.5q-72 0 -148 35q-6 3 -29 14t-31.5 14.5t-24.5 8t-29 4.5q-32 0 -49 -21t-19 -55h-272z" />
<glyph unicode="&#xa1;" horiz-adv-x="516" d="M59 1030q0 82 57.5 140.5t139.5 58.5q83 0 142 -58.5t59 -140.5q0 -83 -59 -141t-142 -58q-82 0 -139.5 58t-57.5 141zM92 -217v1018h332v-1018h-332z" />
<glyph unicode="&#xa2;" horiz-adv-x="991" d="M33 545q0 216 133.5 373.5t345.5 189.5v129h164v-127q185 -22 311 -139l-174 -223q-59 55 -137 71v-545q75 19 139 74l174 -223q-51 -49 -132 -89t-181 -50v-127h-164v129q-220 30 -349.5 184.5t-129.5 372.5zM350 547q0 -98 44 -164.5t118 -95.5v524q-79 -29 -120.5 -98 t-41.5 -166z" />
<glyph unicode="&#xa3;" horiz-adv-x="1138" d="M47 0v305h111v234h-111v288h111v166q0 202 121 326.5t348 124.5q110 0 196 -31t136.5 -78.5t82 -111.5t42 -123t8.5 -119h-338q0 21 -5 41.5t-17.5 44t-39.5 37.5t-65 14q-65 0 -96 -40.5t-31 -108.5v-142h270v-288h-270v-234h606v-305h-1059z" />
<glyph unicode="&#xa5;" horiz-adv-x="1122" d="M2 1417h395l174 -276l172 276h367l-383 -575h258v-240h-258v-96h258v-240h-258v-266h-340v266h-258v240h258v96h-258v240h258z" />
<glyph unicode="&#xa6;" horiz-adv-x="518" d="M123 -358v882h272v-882h-272zM123 637v860h272v-860h-272z" />
<glyph unicode="&#xa7;" horiz-adv-x="1189" d="M39 592q0 108 50.5 182t129.5 113q-59 88 -59 217q0 82 29 154.5t83.5 128.5t141.5 89t196 33q78 0 142.5 -14.5t109.5 -38.5t79 -58.5t54 -71t32.5 -80t17 -81.5t4.5 -80h-328q0 52 -27.5 88.5t-87.5 36.5q-57 0 -82.5 -26.5t-25.5 -65.5q0 -41 28 -67t90 -47l254 -86 q277 -95 277 -363q0 -101 -49 -184.5t-121 -120.5q57 -72 57 -217q0 -81 -30.5 -154t-87 -129.5t-145 -89.5t-196.5 -33q-442 0 -442 432h332q0 -55 26.5 -94t90.5 -39q58 0 85 26.5t27 67.5q0 44 -27.5 70t-88.5 47l-283 103q-116 42 -186 129t-70 223zM371 625 q0 -59 53 -76l268 -96q29 -8 56.5 -8t47 19.5t19.5 55.5q0 55 -51 72l-279 100q-48 18 -81 -3.5t-33 -63.5z" />
<glyph unicode="&#xa8;" d="M131 1321q0 71 49 119.5t121 48.5q76 0 126 -48t50 -120t-51 -121t-125 -49q-72 0 -121 49t-49 121zM526 1321q0 71 49 119.5t121 48.5q76 0 126 -48t50 -120t-51 -121t-125 -49q-72 0 -121 49t-49 121z" />
<glyph unicode="&#xa9;" horiz-adv-x="1572" d="M41 707q0 205 92.5 373t262 266t382.5 98q227 0 400 -96.5t263.5 -262t90.5 -372.5q0 -154 -53 -289.5t-148.5 -235t-236 -157.5t-306.5 -58q-223 0 -394 97t-262 263t-91 374zM244 707q0 -117 37.5 -218t106 -175t171.5 -116t229 -42q252 0 396.5 154.5t144.5 402.5 q0 246 -146.5 397.5t-404.5 151.5q-243 0 -388.5 -155t-145.5 -400zM410 707q0 173 111.5 288t293.5 115q155 0 260 -88l-151 -199q-14 16 -44.5 29.5t-68.5 13.5q-65 0 -103 -43.5t-38 -113.5q0 -68 41 -112t106 -44t107 37l151 -184q-104 -99 -256 -99 q-188 0 -298.5 113.5t-110.5 286.5z" />
<glyph unicode="&#xaa;" horiz-adv-x="741" d="M35 866q-2 122 75.5 197.5t206.5 75.5q84 0 129 -27v31q0 88 -71 88q-41 0 -58.5 -19.5t-17.5 -48.5h-233q3 128 79.5 197.5t229.5 69.5q92 0 156 -24t99.5 -69t50.5 -100.5t15 -128.5v-516h-204v45q-59 -53 -168 -53q-126 0 -207 76t-82 206zM270 870q0 -40 25 -64 t65 -24t65.5 24.5t25.5 63.5t-25.5 63.5t-65.5 24.5t-65 -24t-25 -64z" />
<glyph unicode="&#xab;" horiz-adv-x="862" d="M25 549l161 358h277l-164 -358l164 -356h-277zM399 549l162 358h277l-164 -358l164 -356h-277z" />
<glyph unicode="&#xad;" horiz-adv-x="659" d="M57 432v307h545v-307h-545z" />
<glyph unicode="&#xae;" horiz-adv-x="899" d="M25 1092q0 179 117 299t302 120q193 0 311.5 -118.5t118.5 -298.5q0 -178 -118 -299t-307 -121t-306.5 118.5t-117.5 299.5zM139 1092q0 -136 85 -225t225 -89q143 0 226 88t83 228t-84 225.5t-230 85.5q-138 0 -221.5 -87.5t-83.5 -225.5zM287 872v451h190 q74 0 113 -37.5t39 -103.5q0 -75 -60 -117l76 -193h-137l-64 164h-24v-164h-133zM420 1141h33q39 0 39 37q0 34 -39 34h-33v-71z" />
<glyph unicode="&#xaf;" horiz-adv-x="819" d="M154 1180v237h512v-237h-512z" />
<glyph unicode="&#xb0;" horiz-adv-x="741" d="M33 1106q0 143 94 238.5t242 95.5q154 0 247 -93.5t93 -236.5q0 -145 -93 -239.5t-245 -94.5t-245 94t-93 236zM252 1106q0 -50 34.5 -85.5t84.5 -35.5q52 0 85 36.5t33 84.5q0 52 -34 88.5t-84 36.5q-53 0 -86 -36.5t-33 -88.5z" />
<glyph unicode="&#xb2;" horiz-adv-x="686" d="M33 686v172l262 178q52 36 72 59.5t20 55.5q0 26 -15.5 42.5t-43.5 16.5q-64 0 -64 -71h-231q-2 49 12.5 97.5t47 93t93.5 72.5t142 28q145 0 227 -70t82 -193q0 -73 -33.5 -123t-101.5 -94l-92 -59h235v-205h-612z" />
<glyph unicode="&#xb3;" horiz-adv-x="667" d="M25 936h235q0 -32 17.5 -51t48.5 -19q30 0 46.5 18.5t16.5 45.5q0 30 -18.5 46.5t-53.5 16.5h-120v148l125 82h-246v194h512v-182l-121 -82q65 -13 115.5 -68.5t50.5 -154.5q0 -113 -81 -185.5t-233 -72.5q-143 0 -217.5 69.5t-76.5 194.5z" />
<glyph unicode="&#xb4;" d="M342 1163l154 287h321l-168 -287h-307z" />
<glyph unicode="&#xb6;" horiz-adv-x="980" d="M14 1126q0 128 86.5 209.5t223.5 81.5h227v-1417h-244v829q-126 3 -209.5 85.5t-83.5 211.5zM655 0v1417h244v-1417h-244z" />
<glyph unicode="&#xb7;" horiz-adv-x="503" d="M51 674q0 86 56.5 143t144.5 57t144.5 -57t56.5 -143t-57.5 -144.5t-143.5 -58.5t-143.5 58.5t-57.5 144.5z" />
<glyph unicode="&#xb8;" horiz-adv-x="819" d="M256 29h180v-99q150 -52 150 -225q0 -116 -76 -181t-213 -65h-41v179h45q74 3 74 67q0 32 -20 49t-54 17h-45v258z" />
<glyph unicode="&#xb9;" horiz-adv-x="407" d="M20 1184v186l105 47h221v-731h-246v526z" />
<glyph unicode="&#xba;" horiz-adv-x="901" d="M20 1004q0 184 121 305t308 121q197 0 314.5 -118t117.5 -302q0 -185 -118.5 -305.5t-311.5 -120.5q-195 0 -313 118.5t-118 301.5zM276 1006q0 -82 49 -134.5t128 -52.5q78 0 125 53t47 134q0 83 -49.5 135.5t-124.5 52.5q-80 0 -127.5 -52.5t-47.5 -135.5z" />
<glyph unicode="&#xbb;" horiz-adv-x="862" d="M25 193l163 356l-163 358h276l162 -358l-162 -356h-276zM399 193l164 356l-164 358h277l162 -358l-162 -356h-277z" />
<glyph unicode="&#xbc;" horiz-adv-x="1431" d="M4 0l1051 1417h258l-1055 -1417h-254zM80 1184v186l104 47h222v-731h-246v526zM717 111v208l344 420h237v-413h76v-215h-76v-111h-235v111h-346zM940 326h123v151z" />
<glyph unicode="&#xbd;" horiz-adv-x="1460" d="M4 0l1051 1417h258l-1055 -1417h-254zM80 1184v186l104 47h222v-731h-246v526zM791 0v174l262 176q52 36 72 59.5t20 55.5q0 26 -16 42.5t-44 16.5q-63 0 -63 -71h-231q-2 49 12.5 97t46.5 92.5t93 72.5t142 28q145 0 227.5 -69.5t82.5 -192.5q0 -135 -135 -219l-93 -57 h236v-205h-612z" />
<glyph unicode="&#xbe;" horiz-adv-x="1583" d="M57 936h236q0 -32 17 -51t48 -19q30 0 47 18.5t17 45.5q0 30 -18.5 46.5t-53.5 16.5h-121v148l125 82h-245v194h512v-182l-121 -82q65 -13 115.5 -68.5t50.5 -154.5q0 -113 -81 -185.5t-233 -72.5q-143 0 -218 69.5t-77 194.5zM164 0l1050 1417h259l-1055 -1417h-254z M868 111v208l344 420h238v-413h76v-215h-76v-111h-236v111h-346zM1092 326h122v151z" />
<glyph unicode="&#xbf;" horiz-adv-x="983" d="M39 164q0 153 87.5 248.5t221.5 115.5v275h326v-510h-178q-60 0 -93.5 -31.5t-33.5 -91.5q0 -54 33.5 -88.5t89.5 -34.5q67 0 94.5 42.5t27.5 100.5h332q2 -48 -6 -98.5t-37 -111.5t-76.5 -107.5t-135 -78.5t-202.5 -32q-213 0 -331.5 112.5t-118.5 289.5zM311 1032 q0 83 58 141t141 58t141 -58t58 -141t-58 -140.5t-141 -57.5t-141 57.5t-58 140.5z" />
<glyph unicode="&#xc0;" horiz-adv-x="1347" d="M-16 0l495 1417h361l524 -1417h-363l-118 338h-447l-117 -338h-335zM336 1747h321l148 -270h-309zM535 625h249l-125 358z" />
<glyph unicode="&#xc1;" horiz-adv-x="1347" d="M-16 0l495 1417h361l524 -1417h-363l-118 338h-447l-117 -338h-335zM508 1477l147 270h326l-160 -270h-313zM535 625h249l-125 358z" />
<glyph unicode="&#xc2;" horiz-adv-x="1347" d="M-16 0l495 1417h361l524 -1417h-363l-118 338h-447l-117 -338h-335zM285 1477l202 270h344l203 -270h-295l-80 90l-79 -90h-295zM535 625h249l-125 358z" />
<glyph unicode="&#xc3;" horiz-adv-x="1347" d="M-16 0l495 1417h361l524 -1417h-363l-118 338h-447l-117 -338h-335zM301 1477q-8 130 59.5 213.5t180.5 83.5q47 0 85 -14.5t65 -29t48 -14.5q47 0 47 62h232q7 -136 -57 -216.5t-177 -80.5q-54 0 -117 28.5t-83 28.5q-52 0 -52 -61h-231zM535 625h249l-125 358z" />
<glyph unicode="&#xc4;" horiz-adv-x="1347" d="M-16 0l495 1417h361l524 -1417h-363l-118 338h-447l-117 -338h-335zM276 1628q0 71 49 119.5t121 48.5q76 0 126.5 -48t50.5 -120t-51.5 -121t-125.5 -49q-72 0 -121 49t-49 121zM535 625h249l-125 358zM696 1628q0 71 49 119.5t121 48.5q76 0 126 -48t50 -120t-51 -121 t-125 -49q-72 0 -121 49t-49 121z" />
<glyph unicode="&#xc5;" horiz-adv-x="1347" d="M-16 0l495 1417h361l524 -1417h-363l-118 338h-447l-117 -338h-335zM426 1679q0 98 65.5 163t165.5 65q107 0 172.5 -63.5t65.5 -160.5q0 -99 -65 -163t-171 -64q-102 0 -167.5 63.5t-65.5 159.5zM535 625h249l-125 358zM580 1683q0 -39 22.5 -62.5t59.5 -23.5 q36 0 57.5 23.5t21.5 62.5q0 36 -21.5 59t-57.5 23q-38 0 -60 -23t-22 -59z" />
<glyph unicode="&#xc6;" horiz-adv-x="1611" d="M-31 0l762 1417h813v-319h-330v-219h320v-316h-320v-244h336v-319h-678v303h-366l-154 -303h-383zM651 590h221v432z" />
<glyph unicode="&#xc7;" horiz-adv-x="1292" d="M41 707q0 153 53.5 288t149.5 234.5t237 157t307 57.5q286 0 480 -168l-203 -258q-115 106 -272 106q-183 0 -288.5 -117.5t-105.5 -297.5q0 -178 110 -297t286 -119q148 0 270 106l201 -241q-195 -185 -471 -185h-7v-43q150 -52 150 -225q0 -116 -76 -181t-213 -65h-41 v179h45q74 3 74 67q0 32 -20 49t-54 17h-45v221q-176 35 -305 137.5t-195.5 251t-66.5 326.5z" />
<glyph unicode="&#xc8;" horiz-adv-x="821" d="M82 0v1417h672v-319h-330v-219h319v-316h-319v-244h336v-319h-678zM129 1747h322l147 -270h-309z" />
<glyph unicode="&#xc9;" horiz-adv-x="821" d="M82 0v1417h672v-319h-330v-219h319v-316h-319v-244h336v-319h-678zM242 1477l147 270h326l-160 -270h-313z" />
<glyph unicode="&#xca;" horiz-adv-x="821" d="M43 1477l203 270h344l203 -270h-295l-80 90l-80 -90h-295zM82 0v1417h672v-319h-330v-219h319v-316h-319v-244h336v-319h-678z" />
<glyph unicode="&#xcb;" horiz-adv-x="821" d="M43 1628q0 71 49 119.5t121 48.5q76 0 126 -48t50 -120t-51 -121t-125 -49q-72 0 -121 49t-49 121zM82 0v1417h672v-319h-330v-219h319v-316h-319v-244h336v-319h-678zM463 1628q0 71 49 119.5t121 48.5q76 0 126 -48t50 -120t-51 -121t-125 -49q-72 0 -121 49t-49 121z " />
<glyph unicode="&#xcc;" horiz-adv-x="505" d="M-66 1747h322l147 -270h-309zM82 0v1417h342v-1417h-342z" />
<glyph unicode="&#xcd;" horiz-adv-x="505" d="M82 0v1417h342v-1417h-342zM96 1477l148 270h325l-159 -270h-314z" />
<glyph unicode="&#xce;" horiz-adv-x="505" d="M-123 1477l203 270h344l203 -270h-295l-80 90l-80 -90h-295zM82 0v1417h342v-1417h-342z" />
<glyph unicode="&#xcf;" horiz-adv-x="505" d="M-129 1628q0 71 49 119.5t121 48.5q76 0 126 -48t50 -120t-51 -121t-125 -49q-72 0 -121 49t-49 121zM82 0v1417h342v-1417h-342zM291 1628q0 71 49 119.5t121 48.5q76 0 126 -48t50 -120t-51 -121t-125 -49q-72 0 -121 49t-49 121z" />
<glyph unicode="&#xd0;" horiz-adv-x="1236" d="M14 555v324h103v538h323q353 0 554.5 -186t201.5 -518t-202 -522.5t-554 -190.5h-323v555h-103zM459 301q174 -2 277.5 104t103.5 306t-101.5 303.5t-279.5 101.5v-237h170v-324h-170v-254z" />
<glyph unicode="&#xd1;" horiz-adv-x="1378" d="M82 0v1417h352l533 -856v856h329v-1417h-338l-546 838v-838h-330zM344 1477q-8 130 59.5 213.5t180.5 83.5q47 0 85 -14.5t65 -29t48 -14.5q47 0 47 62h232q7 -136 -57 -216.5t-177 -80.5q-54 0 -117 28.5t-83 28.5q-52 0 -52 -61h-231z" />
<glyph unicode="&#xd2;" horiz-adv-x="1568" d="M41 707q0 205 92 373t261 266t382 98q226 0 398.5 -96.5t263 -262t90.5 -372.5t-89.5 -374.5t-260 -266.5t-392.5 -99q-170 0 -311 56t-235.5 154.5t-146.5 233t-52 290.5zM399 709q0 -179 106 -297.5t279 -118.5q181 0 283 118t102 298q0 179 -104.5 297t-282.5 118 q-181 0 -282 -117t-101 -298zM477 1747h322l147 -270h-309z" />
<glyph unicode="&#xd3;" horiz-adv-x="1568" d="M41 707q0 205 92 373t261 266t382 98q226 0 398.5 -96.5t263 -262t90.5 -372.5t-89.5 -374.5t-260 -266.5t-392.5 -99q-170 0 -311 56t-235.5 154.5t-146.5 233t-52 290.5zM399 709q0 -179 106 -297.5t279 -118.5q181 0 283 118t102 298q0 179 -104.5 297t-282.5 118 q-181 0 -282 -117t-101 -298zM612 1477l148 270h325l-159 -270h-314z" />
<glyph unicode="&#xd4;" horiz-adv-x="1568" d="M41 707q0 205 92 373t261 266t382 98q226 0 398.5 -96.5t263 -262t90.5 -372.5t-89.5 -374.5t-260 -266.5t-392.5 -99q-170 0 -311 56t-235.5 154.5t-146.5 233t-52 290.5zM399 709q0 -179 106 -297.5t279 -118.5q181 0 283 118t102 298q0 179 -104.5 297t-282.5 118 q-181 0 -282 -117t-101 -298zM410 1477l202 270h344l203 -270h-295l-80 90l-79 -90h-295z" />
<glyph unicode="&#xd5;" horiz-adv-x="1568" d="M41 707q0 205 92 373t261 266t382 98q226 0 398.5 -96.5t263 -262t90.5 -372.5t-89.5 -374.5t-260 -266.5t-392.5 -99q-170 0 -311 56t-235.5 154.5t-146.5 233t-52 290.5zM399 709q0 -179 106 -297.5t279 -118.5q181 0 283 118t102 298q0 179 -104.5 297t-282.5 118 q-181 0 -282 -117t-101 -298zM424 1477q-8 130 59.5 213.5t180.5 83.5q47 0 85 -14.5t65 -29t48 -14.5q47 0 47 62h232q7 -136 -57 -216.5t-177 -80.5q-54 0 -117 28.5t-83 28.5q-52 0 -52 -61h-231z" />
<glyph unicode="&#xd6;" horiz-adv-x="1568" d="M41 707q0 205 92 373t261 266t382 98q226 0 398.5 -96.5t263 -262t90.5 -372.5t-89.5 -374.5t-260 -266.5t-392.5 -99q-170 0 -311 56t-235.5 154.5t-146.5 233t-52 290.5zM399 709q0 -179 106 -297.5t279 -118.5q181 0 283 118t102 298q0 179 -104.5 297t-282.5 118 q-181 0 -282 -117t-101 -298zM401 1628q0 71 49 119.5t121 48.5q76 0 126.5 -48t50.5 -120t-51.5 -121t-125.5 -49q-72 0 -121 49t-49 121zM821 1628q0 71 49 119.5t121 48.5q76 0 126 -48t50 -120t-51 -121t-125 -49q-72 0 -121 49t-49 121z" />
<glyph unicode="&#xd7;" horiz-adv-x="886" d="M31 465l221 221l-221 223l190 193l221 -225l224 223l190 -193l-221 -221l221 -221l-188 -191l-224 222l-223 -224z" />
<glyph unicode="&#xd8;" horiz-adv-x="1568" d="M41 707q0 152 54 287t149 233.5t232 155.5t296 57q109 0 211 -25.5t172 -68.5l98 110l217 -190l-94 -107q64 -84 104 -199.5t40 -246.5q0 -153 -52.5 -287.5t-147 -233t-233.5 -155.5t-305 -57q-220 0 -372 88l-103 -117l-217 188l98 111q-147 185 -147 457zM393 709 q0 -110 35 -187l510 578q-70 30 -160 30q-180 0 -282.5 -119t-102.5 -302zM631 317q70 -28 149 -28q181 0 284 119t103 301q0 93 -32 178z" />
<glyph unicode="&#xd9;" horiz-adv-x="1318" d="M76 565v852h342v-852q0 -125 61 -197.5t183 -72.5q118 0 178.5 73.5t60.5 198.5v850h342v-850q0 -129 -37.5 -237t-109 -188t-184 -124.5t-255.5 -44.5q-195 0 -327 75t-193 205.5t-61 311.5zM358 1747h322l147 -270h-309z" />
<glyph unicode="&#xda;" horiz-adv-x="1318" d="M76 565v852h342v-852q0 -125 61 -197.5t183 -72.5q118 0 178.5 73.5t60.5 198.5v850h342v-850q0 -129 -37.5 -237t-109 -188t-184 -124.5t-255.5 -44.5q-195 0 -327 75t-193 205.5t-61 311.5zM500 1477l147 270h326l-160 -270h-313z" />
<glyph unicode="&#xdb;" horiz-adv-x="1318" d="M76 565v852h342v-852q0 -125 61 -197.5t183 -72.5q118 0 178.5 73.5t60.5 198.5v850h342v-850q0 -129 -37.5 -237t-109 -188t-184 -124.5t-255.5 -44.5q-195 0 -327 75t-193 205.5t-61 311.5zM287 1477l202 270h345l202 -270h-295l-79 90l-80 -90h-295z" />
<glyph unicode="&#xdc;" horiz-adv-x="1318" d="M76 565v852h342v-852q0 -125 61 -197.5t183 -72.5q118 0 178.5 73.5t60.5 198.5v850h342v-850q0 -129 -37.5 -237t-109 -188t-184 -124.5t-255.5 -44.5q-195 0 -327 75t-193 205.5t-61 311.5zM274 1628q0 71 49 119.5t121 48.5q76 0 126.5 -48t50.5 -120t-51.5 -121 t-125.5 -49q-72 0 -121 49t-49 121zM694 1628q0 71 49 119.5t121 48.5q76 0 126 -48t50 -120t-51 -121t-125 -49q-72 0 -121 49t-49 121z" />
<glyph unicode="&#xdd;" horiz-adv-x="1085" d="M-25 1417h379l197 -387l199 387h360l-401 -715v-702h-340v696zM401 1477l148 270h325l-159 -270h-314z" />
<glyph unicode="&#xde;" horiz-adv-x="1048" d="M82 0v1417h340v-272h147q220 0 333.5 -109.5t113.5 -312.5q0 -202 -121 -320t-326 -118h-147v-285h-340zM422 588h119q58 0 90.5 36t32.5 97q0 59 -33 94t-90 35h-119v-262z" />
<glyph unicode="&#xdf;" horiz-adv-x="1091" d="M66 0v1077q0 94 25 170t77.5 136t143.5 93t214 33q202 0 319.5 -97t117.5 -273q0 -79 -35 -141t-78 -89q209 -134 209 -413q0 -231 -148.5 -367t-392.5 -129h-33v274h25q95 2 157.5 63.5t63.5 162.5q1 99 -63 162t-160 63h-23v266h35q55 0 89 36t34 87q0 56 -33.5 88.5 t-93.5 32.5q-61 0 -91 -38.5t-30 -88.5v-1108h-329z" />
<glyph unicode="&#xe0;" d="M35 362q-2 163 100.5 262t272.5 99q117 0 180 -39v45q0 52 -25 85.5t-82 33.5q-53 0 -76.5 -28t-23.5 -66h-305q5 170 105.5 262t297.5 92q100 0 176 -21.5t124.5 -58t79 -92t42.5 -117.5t12 -139v-680h-270v59q-80 -71 -225 -71q-165 0 -273.5 101.5t-109.5 272.5z M180 1450h322l153 -287h-307zM344 371q0 -54 35.5 -88.5t89.5 -34.5t89.5 34.5t35.5 88.5q0 55 -36 88t-91 33q-54 0 -88.5 -34t-34.5 -87z" />
<glyph unicode="&#xe1;" d="M35 362q-2 163 100.5 262t272.5 99q117 0 180 -39v45q0 52 -25 85.5t-82 33.5q-53 0 -76.5 -28t-23.5 -66h-305q5 170 105.5 262t297.5 92q100 0 176 -21.5t124.5 -58t79 -92t42.5 -117.5t12 -139v-680h-270v59q-80 -71 -225 -71q-165 0 -273.5 101.5t-109.5 272.5z M342 1163l154 287h321l-168 -287h-307zM344 371q0 -54 35.5 -88.5t89.5 -34.5t89.5 34.5t35.5 88.5q0 55 -36 88t-91 33q-54 0 -88.5 -34t-34.5 -87z" />
<glyph unicode="&#xe2;" d="M35 362q-2 163 100.5 262t272.5 99q117 0 180 -39v45q0 52 -25 85.5t-82 33.5q-53 0 -76.5 -28t-23.5 -66h-305q5 170 105.5 262t297.5 92q100 0 176 -21.5t124.5 -58t79 -92t42.5 -117.5t12 -139v-680h-270v59q-80 -71 -225 -71q-165 0 -273.5 101.5t-109.5 272.5z M133 1161l191 293h327l191 -293h-283l-72 103l-71 -103h-283zM344 371q0 -54 35.5 -88.5t89.5 -34.5t89.5 34.5t35.5 88.5q0 55 -36 88t-91 33q-54 0 -88.5 -34t-34.5 -87z" />
<glyph unicode="&#xe3;" d="M35 362q-2 163 100.5 262t272.5 99q117 0 180 -39v45q0 52 -25 85.5t-82 33.5q-53 0 -76.5 -28t-23.5 -66h-305q5 170 105.5 262t297.5 92q100 0 176 -21.5t124.5 -58t79 -92t42.5 -117.5t12 -139v-680h-270v59q-80 -71 -225 -71q-165 0 -273.5 101.5t-109.5 272.5z M139 1155q-8 130 57.5 213.5t178.5 83.5q47 0 83.5 -14t62 -28.5t46.5 -14.5q43 0 43 61h230q7 -136 -55 -216.5t-175 -80.5q-54 0 -114 29t-80 29q-47 0 -47 -62h-230zM344 371q0 -54 35.5 -88.5t89.5 -34.5t89.5 34.5t35.5 88.5q0 55 -36 88t-91 33q-54 0 -88.5 -34 t-34.5 -87z" />
<glyph unicode="&#xe4;" d="M35 362q-2 163 100.5 262t272.5 99q117 0 180 -39v45q0 52 -25 85.5t-82 33.5q-53 0 -76.5 -28t-23.5 -66h-305q5 170 105.5 262t297.5 92q100 0 176 -21.5t124.5 -58t79 -92t42.5 -117.5t12 -139v-680h-270v59q-80 -71 -225 -71q-165 0 -273.5 101.5t-109.5 272.5z M117 1321q0 71 49 119.5t121 48.5q76 0 126 -48t50 -120t-51 -121t-125 -49q-72 0 -121 49t-49 121zM344 371q0 -54 35.5 -88.5t89.5 -34.5t89.5 34.5t35.5 88.5q0 55 -36 88t-91 33q-54 0 -88.5 -34t-34.5 -87zM512 1321q0 71 49 119.5t121 48.5q76 0 126 -48t50 -120 t-51 -121t-125 -49q-72 0 -121 49t-49 121z" />
<glyph unicode="&#xe5;" d="M35 362q-2 163 100.5 262t272.5 99q117 0 180 -39v45q0 52 -25 85.5t-82 33.5q-53 0 -76.5 -28t-23.5 -66h-305q5 170 105.5 262t297.5 92q100 0 176 -21.5t124.5 -58t79 -92t42.5 -117.5t12 -139v-680h-270v59q-80 -71 -225 -71q-165 0 -273.5 101.5t-109.5 272.5z M252 1364q0 97 65.5 161t163.5 64q106 0 171 -63t65 -158q0 -98 -64.5 -161.5t-169.5 -63.5q-100 0 -165.5 63.5t-65.5 157.5zM344 371q0 -54 35.5 -88.5t89.5 -34.5t89.5 34.5t35.5 88.5q0 55 -36 88t-91 33q-54 0 -88.5 -34t-34.5 -87zM399 1368q0 -39 24.5 -64.5 t61.5 -25.5q36 0 60 25.5t24 64.5q0 37 -23.5 61.5t-60.5 24.5q-38 0 -62 -24.5t-24 -61.5z" />
<glyph unicode="&#xe6;" horiz-adv-x="1677" d="M35 356q-2 164 102.5 265.5t278.5 101.5q112 0 172 -37v43q0 52 -25 85.5t-82 33.5q-53 0 -76.5 -28t-23.5 -66h-305q5 170 106 262t299 92q206 0 307 -113q52 48 134.5 83.5t191.5 35.5q248 0 392.5 -149.5t144.5 -397.5q0 -53 -4 -127h-727q6 -70 64.5 -119t156.5 -49 q143 0 221 129l252 -147q-25 -52 -63 -97t-95 -86t-138.5 -65t-178.5 -24q-237 0 -389 133q-110 -133 -301 -133q-184 0 -298.5 101.5t-115.5 272.5zM344 371q0 -54 35.5 -88.5t89.5 -34.5t89.5 34.5t35.5 88.5q0 55 -36 88t-91 33q-54 0 -88.5 -34t-34.5 -87zM928 672h381 q-6 71 -58.5 119.5t-136.5 48.5q-81 0 -129.5 -49t-56.5 -119z" />
<glyph unicode="&#xe7;" horiz-adv-x="972" d="M33 545q0 157 72 287t202.5 206t292.5 76q225 0 371 -135l-183 -234q-81 72 -184 72q-114 0 -179 -75.5t-65 -194.5q0 -123 72 -195.5t174 -72.5t182 71l183 -233q-60 -55 -153.5 -95t-213.5 -40h-6v-52q150 -52 150 -225q0 -116 -76 -181t-213 -65h-41v179h45 q74 3 74 67q0 32 -20 49t-54 17h-45v235q-180 53 -282.5 199t-102.5 340z" />
<glyph unicode="&#xe8;" horiz-adv-x="1136" d="M33 543q0 163 67.5 293t190.5 204t280 74q250 0 394.5 -149.5t144.5 -397.5q0 -72 -4 -127h-731q11 -78 69.5 -123t153.5 -45q141 0 223 129l252 -147q-25 -52 -63 -97t-95 -86t-139.5 -65t-179.5 -24q-254 0 -408.5 151t-154.5 410zM262 1450h322l153 -287h-307z M383 672h385q-6 71 -58.5 119.5t-138.5 48.5q-82 0 -132 -49t-56 -119z" />
<glyph unicode="&#xe9;" horiz-adv-x="1136" d="M33 543q0 163 67.5 293t190.5 204t280 74q250 0 394.5 -149.5t144.5 -397.5q0 -72 -4 -127h-731q11 -78 69.5 -123t153.5 -45q141 0 223 129l252 -147q-25 -52 -63 -97t-95 -86t-139.5 -65t-179.5 -24q-254 0 -408.5 151t-154.5 410zM383 672h385q-6 71 -58.5 119.5 t-138.5 48.5q-82 0 -132 -49t-56 -119zM424 1163l154 287h321l-168 -287h-307z" />
<glyph unicode="&#xea;" horiz-adv-x="1136" d="M33 543q0 163 67.5 293t190.5 204t280 74q250 0 394.5 -149.5t144.5 -397.5q0 -72 -4 -127h-731q11 -78 69.5 -123t153.5 -45q141 0 223 129l252 -147q-25 -52 -63 -97t-95 -86t-139.5 -65t-179.5 -24q-254 0 -408.5 151t-154.5 410zM213 1161l190 293h328l191 -293h-283 l-72 103l-71 -103h-283zM383 672h385q-6 71 -58.5 119.5t-138.5 48.5q-82 0 -132 -49t-56 -119z" />
<glyph unicode="&#xeb;" horiz-adv-x="1136" d="M33 543q0 163 67.5 293t190.5 204t280 74q250 0 394.5 -149.5t144.5 -397.5q0 -72 -4 -127h-731q11 -78 69.5 -123t153.5 -45q141 0 223 129l252 -147q-25 -52 -63 -97t-95 -86t-139.5 -65t-179.5 -24q-254 0 -408.5 151t-154.5 410zM205 1321q0 71 49 119.5t121 48.5 q76 0 126 -48t50 -120t-51 -121t-125 -49q-72 0 -121 49t-49 121zM383 672h385q-6 71 -58.5 119.5t-138.5 48.5q-82 0 -132 -49t-56 -119zM600 1321q0 71 49 119.5t121 48.5q76 0 126 -48t50 -120t-51 -121t-125 -49q-72 0 -121 49t-49 121z" />
<glyph unicode="&#xec;" horiz-adv-x="460" d="M-92 1450h321l154 -287h-307zM66 0v1096h329v-1096h-329z" />
<glyph unicode="&#xed;" horiz-adv-x="460" d="M66 0v1096h329v-1096h-329zM80 1163l153 287h322l-168 -287h-307z" />
<glyph unicode="&#xee;" horiz-adv-x="460" d="M-123 1161l191 293h327l191 -293h-283l-72 103l-71 -103h-283zM66 0v1096h329v-1096h-329z" />
<glyph unicode="&#xef;" horiz-adv-x="460" d="M-139 1321q0 71 49 119.5t121 48.5q76 0 126 -48t50 -120t-51 -121t-125 -49q-72 0 -121 49t-49 121zM66 0v1096h329v-1096h-329zM256 1321q0 71 49 119.5t121 48.5q76 0 126 -48t50 -120t-51 -121t-125 -49q-72 0 -121 49t-49 121z" />
<glyph unicode="&#xf0;" horiz-adv-x="1218" d="M33 543q0 128 45 232t121 170t172 102t202 38l-61 80l-227 -57l-60 223l133 33l-102 133h371l43 -53l202 51l58 -225l-94 -25l114 -137q117 -141 176.5 -266.5t59.5 -274.5q0 -165 -68 -297.5t-197.5 -210t-299.5 -77.5q-260 0 -424 157t-164 404zM360 545 q0 -116 70 -191t180 -75q114 0 181 74.5t67 191.5t-69.5 192.5t-180.5 75.5q-115 0 -181.5 -75t-66.5 -193z" />
<glyph unicode="&#xf1;" horiz-adv-x="1019" d="M66 0v1096h329v-70q89 82 221 82q94 0 162 -30t106.5 -85t56 -122t17.5 -150v-721h-329v682q0 62 -30 97.5t-87 35.5q-56 0 -86.5 -35t-30.5 -96v-684h-329zM154 1155q-8 130 57 213.5t178 83.5q47 0 84 -14t62.5 -28.5t46.5 -14.5q43 0 43 61h229q7 -136 -54.5 -216.5 t-174.5 -80.5q-54 0 -114.5 29t-80.5 29q-47 0 -47 -62h-229z" />
<glyph unicode="&#xf2;" horiz-adv-x="1218" d="M33 545q0 158 72.5 288t204 205.5t296.5 75.5q175 0 308 -75t202.5 -202t69.5 -286t-71 -288.5t-204 -205t-303 -75.5q-172 0 -304 74.5t-201.5 202t-69.5 286.5zM305 1450h322l153 -287h-307zM360 547q0 -116 70 -192t180 -76q114 0 181 75.5t67 192.5t-69.5 193.5 t-180.5 76.5q-114 0 -181 -76t-67 -194z" />
<glyph unicode="&#xf3;" horiz-adv-x="1218" d="M33 545q0 158 72.5 288t204 205.5t296.5 75.5q175 0 308 -75t202.5 -202t69.5 -286t-71 -288.5t-204 -205t-303 -75.5q-172 0 -304 74.5t-201.5 202t-69.5 286.5zM360 547q0 -116 70 -192t180 -76q114 0 181 75.5t67 192.5t-69.5 193.5t-180.5 76.5q-114 0 -181 -76 t-67 -194zM465 1163l153 287h322l-168 -287h-307z" />
<glyph unicode="&#xf4;" horiz-adv-x="1218" d="M33 545q0 158 72.5 288t204 205.5t296.5 75.5q175 0 308 -75t202.5 -202t69.5 -286t-71 -288.5t-204 -205t-303 -75.5q-172 0 -304 74.5t-201.5 202t-69.5 286.5zM254 1161l190 293h328l191 -293h-283l-72 103l-71 -103h-283zM360 547q0 -116 70 -192t180 -76 q114 0 181 75.5t67 192.5t-69.5 193.5t-180.5 76.5q-114 0 -181 -76t-67 -194z" />
<glyph unicode="&#xf5;" horiz-adv-x="1218" d="M33 545q0 158 72.5 288t204 205.5t296.5 75.5q175 0 308 -75t202.5 -202t69.5 -286t-71 -288.5t-204 -205t-303 -75.5q-172 0 -304 74.5t-201.5 202t-69.5 286.5zM260 1155q-8 130 57.5 213.5t178.5 83.5q47 0 83.5 -14t62 -28.5t46.5 -14.5q43 0 43 61h230 q7 -136 -55 -216.5t-175 -80.5q-54 0 -114 29t-80 29q-48 0 -48 -62h-229zM360 547q0 -116 70 -192t180 -76q114 0 181 75.5t67 192.5t-69.5 193.5t-180.5 76.5q-114 0 -181 -76t-67 -194z" />
<glyph unicode="&#xf6;" horiz-adv-x="1218" d="M33 545q0 158 72.5 288t204 205.5t296.5 75.5q175 0 308 -75t202.5 -202t69.5 -286t-71 -288.5t-204 -205t-303 -75.5q-172 0 -304 74.5t-201.5 202t-69.5 286.5zM238 1321q0 71 49 119.5t121 48.5q76 0 126 -48t50 -120t-51 -121t-125 -49q-72 0 -121 49t-49 121z M360 547q0 -116 70 -192t180 -76q114 0 181 75.5t67 192.5t-69.5 193.5t-180.5 76.5q-114 0 -181 -76t-67 -194zM633 1321q0 71 49 119.5t121 48.5q76 0 126 -48t50 -120t-51 -121t-125 -49q-72 0 -121 49t-49 121z" />
<glyph unicode="&#xf7;" horiz-adv-x="972" d="M61 553v274h850v-274h-850zM309 322q0 74 51.5 125t126.5 51t126 -51t51 -125t-52 -126.5t-125 -52.5t-125.5 52.5t-52.5 126.5zM309 1057q0 74 51.5 125t126.5 51t126 -51t51 -125t-52 -126t-125 -52t-125.5 52.5t-52.5 125.5z" />
<glyph unicode="&#xf8;" horiz-adv-x="1218" d="M33 547q0 158 72.5 287.5t204 204.5t296.5 75q161 0 281 -65l76 86l174 -150l-70 -80q119 -147 119 -354q0 -159 -71 -288.5t-204 -205t-303 -75.5q-179 0 -282 67l-82 -94l-172 147l78 91q-117 145 -117 354zM348 547q0 -61 14 -107l328 379q-47 15 -82 15 q-123 0 -191.5 -80t-68.5 -207zM522 274q40 -12 88 -12q122 0 191 79.5t69 205.5q0 57 -18 110z" />
<glyph unicode="&#xf9;" horiz-adv-x="1013" d="M61 377v719h330v-680q0 -133 111 -133q56 0 86 36t30 97v680h330v-1096h-327v70q-28 -30 -82.5 -56t-135.5 -26q-176 0 -259 104t-83 285zM203 1450h321l154 -287h-307z" />
<glyph unicode="&#xfa;" horiz-adv-x="1013" d="M61 377v719h330v-680q0 -133 111 -133q56 0 86 36t30 97v680h330v-1096h-327v70q-28 -30 -82.5 -56t-135.5 -26q-176 0 -259 104t-83 285zM338 1163l154 287h321l-168 -287h-307z" />
<glyph unicode="&#xfb;" horiz-adv-x="1013" d="M61 377v719h330v-680q0 -133 111 -133q56 0 86 36t30 97v680h330v-1096h-327v70q-28 -30 -82.5 -56t-135.5 -26q-176 0 -259 104t-83 285zM152 1161l190 293h328l190 -293h-282l-72 103l-72 -103h-282z" />
<glyph unicode="&#xfc;" horiz-adv-x="1013" d="M61 377v719h330v-680q0 -133 111 -133q56 0 86 36t30 97v680h330v-1096h-327v70q-28 -30 -82.5 -56t-135.5 -26q-176 0 -259 104t-83 285zM129 1321q0 71 49 119.5t121 48.5q76 0 126 -48t50 -120t-51 -121t-125 -49q-72 0 -121 49t-49 121zM524 1321q0 71 49 119.5 t121 48.5q76 0 126 -48t50 -120t-51 -121t-125 -49q-72 0 -121 49t-49 121z" />
<glyph unicode="&#xfd;" horiz-adv-x="1103" d="M0 1096h362l207 -588l205 588h336l-541 -1454h-317l149 417zM397 1163l154 287h321l-167 -287h-308z" />
<glyph unicode="&#xfe;" horiz-adv-x="1257" d="M66 -362v1857h329v-463q117 82 287 82q253 0 398 -156t145 -407q0 -158 -67 -286.5t-198 -205.5t-303 -77q-77 0 -147 19.5t-115 47.5v-411h-329zM385 547q0 -120 71 -196.5t185 -76.5q119 0 186.5 76.5t67.5 196.5q0 121 -69.5 197.5t-186.5 76.5q-119 0 -186.5 -76 t-67.5 -198z" />
<glyph unicode="&#xff;" horiz-adv-x="1103" d="M0 1096h362l207 -588l205 588h336l-541 -1454h-317l149 417zM199 1321q0 71 49 119.5t121 48.5q76 0 126 -48t50 -120t-51 -121t-125 -49q-72 0 -121 49t-49 121zM594 1321q0 71 49 119.5t121 48.5q76 0 126 -48t50 -120t-51 -121t-125 -49q-72 0 -121 49t-49 121z" />
<glyph unicode="&#x152;" horiz-adv-x="1517" d="M41 713q0 323 204 513.5t552 190.5h653v-319h-330v-219h320v-316h-320v-244h336v-319h-659q-354 0 -555 192t-201 521zM397 711q0 -191 103.5 -292.5t277.5 -99.5v779q-178 2 -279.5 -96t-101.5 -291z" />
<glyph unicode="&#x153;" horiz-adv-x="1957" d="M33 545q0 158 72.5 288t204 205.5t296.5 75.5q251 0 412 -164q154 164 377 164q248 0 392 -149.5t144 -397.5q0 -53 -4 -127h-727q6 -70 64.5 -119t156.5 -49q143 0 221 129l252 -147q-25 -52 -63 -97t-95 -86t-138.5 -65t-178.5 -24q-251 0 -407 159 q-159 -159 -404 -159q-172 0 -304 74.5t-201.5 202t-69.5 286.5zM360 547q0 -116 70 -192t180 -76q114 0 181 75.5t67 192.5t-69.5 193.5t-180.5 76.5q-114 0 -181 -76t-67 -194zM1208 672h381q-6 71 -58 119.5t-136 48.5q-81 0 -130 -49t-57 -119z" />
<glyph unicode="&#x178;" horiz-adv-x="1085" d="M-25 1417h379l197 -387l199 387h360l-401 -715v-702h-340v696zM168 1628q0 71 49 119.5t121 48.5q76 0 126 -48t50 -120t-51 -121t-125 -49q-72 0 -121 49t-49 121zM588 1628q0 71 49 119.5t121 48.5q76 0 126 -48t50 -120t-51 -121t-125 -49q-72 0 -121 49t-49 121z" />
<glyph unicode="&#x2c6;" horiz-adv-x="819" d="M55 1161l191 293h327l191 -293h-283l-71 103l-72 -103h-283z" />
<glyph unicode="&#x2dc;" horiz-adv-x="819" d="M59 1155q-8 130 57.5 213.5t178.5 83.5q47 0 83.5 -14t62 -28.5t46.5 -14.5q43 0 43 61h230q7 -136 -55 -216.5t-175 -80.5q-54 0 -114 29t-80 29q-47 0 -47 -62h-230z" />
<glyph unicode="&#x2000;" horiz-adv-x="953" />
<glyph unicode="&#x2001;" horiz-adv-x="1907" />
<glyph unicode="&#x2002;" horiz-adv-x="953" />
<glyph unicode="&#x2003;" horiz-adv-x="1907" />
<glyph unicode="&#x2004;" horiz-adv-x="635" />
<glyph unicode="&#x2005;" horiz-adv-x="476" />
<glyph unicode="&#x2006;" horiz-adv-x="317" />
<glyph unicode="&#x2007;" horiz-adv-x="317" />
<glyph unicode="&#x2008;" horiz-adv-x="238" />
<glyph unicode="&#x2009;" horiz-adv-x="381" />
<glyph unicode="&#x200a;" horiz-adv-x="105" />
<glyph unicode="&#x2010;" horiz-adv-x="659" d="M57 432v307h545v-307h-545z" />
<glyph unicode="&#x2011;" horiz-adv-x="659" d="M57 432v307h545v-307h-545z" />
<glyph unicode="&#x2012;" horiz-adv-x="659" d="M57 432v307h545v-307h-545z" />
<glyph unicode="&#x2013;" horiz-adv-x="1259" d="M57 446v271h1145v-271h-1145z" />
<glyph unicode="&#x2014;" horiz-adv-x="1966" d="M57 446v271h1852v-271h-1852z" />
<glyph unicode="&#x2018;" horiz-adv-x="448" d="M29 1016q0 77 45 168l112 233h222l-113 -223q57 -21 93 -65t36 -113q0 -84 -55 -140.5t-144 -56.5q-88 0 -142 55.5t-54 141.5z" />
<glyph unicode="&#x2019;" horiz-adv-x="448" d="M25 1237q0 84 54.5 140.5t143.5 56.5q88 0 142.5 -55.5t54.5 -141.5q0 -79 -45 -168l-113 -233h-221l113 223q-57 21 -93 65t-36 113z" />
<glyph unicode="&#x201a;" horiz-adv-x="450" d="M27 182q0 84 54.5 140.5t143.5 56.5q88 0 142.5 -55.5t54.5 -141.5q0 -79 -45 -168l-113 -233h-221l113 223q-57 21 -93 65t-36 113z" />
<glyph unicode="&#x201c;" horiz-adv-x="897" d="M29 1016q0 77 45 168l112 233h222l-113 -223q57 -21 93 -65t36 -113q0 -84 -55 -140.5t-144 -56.5q-88 0 -142 55.5t-54 141.5zM477 1016q0 77 45 168l113 233h221l-113 -223q57 -21 93 -65t36 -113q0 -84 -54.5 -140.5t-143.5 -56.5q-88 0 -142.5 55.5t-54.5 141.5z" />
<glyph unicode="&#x201d;" horiz-adv-x="897" d="M25 1237q0 84 54.5 140.5t143.5 56.5q88 0 142.5 -55.5t54.5 -141.5q0 -79 -45 -168l-113 -233h-221l113 223q-57 21 -93 65t-36 113zM473 1237q0 84 55 140.5t144 56.5q88 0 142 -55.5t54 -141.5q0 -79 -45 -168l-112 -233h-222l113 223q-57 21 -93 65t-36 113z" />
<glyph unicode="&#x201e;" horiz-adv-x="899" d="M27 182q0 84 54.5 140.5t143.5 56.5q88 0 142.5 -55.5t54.5 -141.5q0 -79 -45 -168l-113 -233h-221l113 223q-57 21 -93 65t-36 113zM475 182q0 84 55 140.5t144 56.5q88 0 142 -55.5t54 -141.5q0 -79 -45 -168l-112 -233h-221l112 223q-57 21 -93 65t-36 113z" />
<glyph unicode="&#x2022;" horiz-adv-x="710" d="M33 608q0 134 94 229t227 95q134 0 229 -95t95 -229q0 -133 -95 -227t-229 -94t-227.5 93.5t-93.5 227.5z" />
<glyph unicode="&#x2026;" horiz-adv-x="1441" d="M31 178q0 87 56.5 144t143.5 57t144 -57t57 -144q0 -86 -57.5 -144.5t-143.5 -58.5t-143 58t-57 145zM520 178q0 87 57 144t144 57t144 -57t57 -144q0 -86 -57.5 -144.5t-143.5 -58.5t-143.5 58.5t-57.5 144.5zM1010 178q0 87 56.5 144t143.5 57t144 -57t57 -144 q0 -86 -57.5 -144.5t-143.5 -58.5t-143 58t-57 145z" />
<glyph unicode="&#x202f;" horiz-adv-x="381" />
<glyph unicode="&#x2039;" horiz-adv-x="487" d="M25 549l161 358h277l-164 -358l164 -356h-277z" />
<glyph unicode="&#x203a;" horiz-adv-x="487" d="M25 193l163 356l-163 358h276l162 -358l-162 -356h-276z" />
<glyph unicode="&#x205f;" horiz-adv-x="476" />
<glyph unicode="&#x20ac;" horiz-adv-x="1347" d="M41 426v240h82v41q0 37 2 55h-84v239h135q77 201 253.5 320t420.5 119q286 0 473 -162l-201 -250q-44 44 -116.5 74.5t-161.5 30.5q-95 0 -172 -34t-117 -98h348v-239h-422q-2 -18 -2 -53v-43h424v-240h-346q86 -137 299 -137q143 0 266 102l201 -229 q-185 -182 -467 -182q-258 0 -436 120t-252 326h-127z" />
<glyph unicode="&#x2122;" horiz-adv-x="1306" d="M37 1235v182h397v-182h-98v-395h-201v395h-98zM489 840v577h299l97 -342l96 342h289v-577h-189v354l-100 -354h-199l-108 354v-354h-185z" />
<glyph unicode="&#xe000;" horiz-adv-x="1095" d="M0 0v1096h1096v-1096h-1096z" />
<glyph unicode="&#xfb01;" horiz-adv-x="1069" d="M27 819v277h96v37q0 177 85 271.5t286 94.5q49 0 86 -2v-272h-37q-90 -2 -90 -99v-30h127v-277h-127v-819h-330v819h-96zM647 1325q0 78 54.5 133t132.5 55t133 -55t55 -133q0 -77 -55 -131.5t-133 -54.5t-132.5 54.5t-54.5 131.5zM674 0v1096h330v-1096h-330z" />
<glyph unicode="&#xfb02;" horiz-adv-x="1069" d="M27 819v277h96v37q0 177 85 271.5t286 94.5q49 0 86 -2v-272h-37q-90 -2 -90 -99v-30h127v-277h-127v-819h-330v819h-96zM674 0v1497h330v-1497h-330z" />
</font>
</defs>
</svg>
