<?xml version="1.0" standalone="no"?>
<!DOCTYPE svg PUBLIC "-//W3C//DTD SVG 1.1//EN" "http://www.w3.org/Graphics/SVG/1.1/DTD/svg11.dtd" >
<svg xmlns="http://www.w3.org/2000/svg">
<metadata></metadata>
<defs>
<font id="platformmedium" horiz-adv-x="1564" >
<font-face units-per-em="2048" ascent="1690" descent="-358" />
<missing-glyph horiz-adv-x="309" />
<glyph horiz-adv-x="2048" />
<glyph horiz-adv-x="2048" />
<glyph unicode="&#xd;" horiz-adv-x="2048" />
<glyph unicode=" "  horiz-adv-x="309" />
<glyph unicode="&#x09;" horiz-adv-x="309" />
<glyph unicode="&#xa0;" horiz-adv-x="309" />
<glyph unicode="!" horiz-adv-x="483" d="M68 154q0 72 52 122t124 50q71 0 120.5 -50t49.5 -122t-50 -123t-120 -51q-72 0 -124 51t-52 123zM102 389v1028l279 -2v-1026h-279z" />
<glyph unicode="&#x22;" horiz-adv-x="733" d="M63 893v524h250v-524h-250zM420 893v524h250v-524h-250z" />
<glyph unicode="#" horiz-adv-x="1251" d="M33 352v223h215l76 310h-164v223h217l76 309h245l-75 -309h192l76 309h246l-76 -309h156v-223h-211l-76 -310h162v-223h-215l-86 -352h-242l84 352h-195l-86 -352h-243l86 352h-162zM492 575h196l74 310h-195z" />
<glyph unicode="$" horiz-adv-x="1019" d="M49 436h244q-3 -194 137 -233v420l-104 45q-128 61 -193 154.5t-65 238.5q0 147 98.5 251.5t263.5 125.5v118h158v-118q93 -11 161 -48.5t107 -94.5t56 -125.5t14 -149.5h-228q0 70 -28.5 121.5t-81.5 72.5v-370q36 -12 102 -45q137 -63 209 -159.5t72 -250.5 q0 -166 -104.5 -276.5t-278.5 -132.5v-121h-158v118q-88 9 -156.5 40.5t-110.5 76t-69 102.5t-37 117t-8 123zM317 1071q0 -57 27 -91.5t86 -66.5v308q-113 -31 -113 -150zM588 205q125 37 125 168q0 64 -30.5 102t-94.5 74v-344z" />
<glyph unicode="%" horiz-adv-x="1626" d="M37 1083q0 149 98 249t252 100q162 0 261.5 -98.5t99.5 -250.5q0 -150 -99.5 -249t-257.5 -99q-159 0 -256.5 98.5t-97.5 249.5zM174 0l1051 1417h235l-1048 -1417h-238zM250 1083q0 -64 38.5 -105.5t102.5 -41.5q68 0 106 41.5t38 105.5q0 66 -40 108t-106 42 q-65 0 -102 -43t-37 -107zM879 334q0 151 98.5 250.5t253.5 99.5q161 0 260.5 -99.5t99.5 -250.5q0 -148 -99 -247t-257 -99q-159 0 -257.5 97.5t-98.5 248.5zM1094 336q0 -64 39 -107t102 -43q68 0 104.5 42.5t36.5 107.5q0 66 -38.5 106.5t-104.5 40.5q-65 0 -102 -41.5 t-37 -105.5z" />
<glyph unicode="&#x26;" horiz-adv-x="1359" d="M41 416q0 126 59.5 227t167.5 156q-112 104 -112 266q0 159 112.5 267t300.5 108q196 0 308 -104.5t112 -270.5q0 -140 -79.5 -231t-200.5 -111l231 -238q43 123 37 275h266q13 -291 -108 -484l266 -276h-344l-90 92q-158 -115 -373 -115q-255 0 -404 123.5t-149 315.5z M332 453q0 -100 74.5 -164t193.5 -64q110 0 184 51l-354 361q-98 -59 -98 -184zM418 1057q0 -67 46 -112.5t114 -45.5q69 0 113 45.5t44 116.5q-2 68 -47 110.5t-115 42.5q-68 0 -111.5 -44.5t-43.5 -112.5z" />
<glyph unicode="'" horiz-adv-x="376" d="M63 893v524h250v-524h-250z" />
<glyph unicode="(" horiz-adv-x="548" d="M82 57v1157q0 416 418 416h16v-244h-14q-90 0 -125 -42.5t-35 -126.5v-1162q0 -85 35 -128.5t125 -43.5h14v-241h-16q-418 0 -418 415z" />
<glyph unicode=")" horiz-adv-x="548" d="M33 -117h14q90 0 125 43.5t35 128.5v1162q0 84 -35 126.5t-125 42.5h-14v244h16q418 0 418 -416v-1157q0 -415 -418 -415h-16v241z" />
<glyph unicode="*" horiz-adv-x="827" d="M57 954l172 101l-172 100l93 160l172 -101v203h184v-203l172 101l90 -158l-172 -100l174 -101l-92 -159l-172 102v-205h-184v205l-172 -102z" />
<glyph unicode="+" horiz-adv-x="962" d="M55 575v230h303v313h246v-313h301v-230h-301v-315h-246v315h-303z" />
<glyph unicode="," horiz-adv-x="425" d="M39 156q-2 74 48.5 124t127.5 50q76 0 124 -50t48 -126q0 -67 -43 -158l-108 -223h-189l113 223q-53 14 -86.5 56.5t-34.5 103.5z" />
<glyph unicode="-" horiz-adv-x="626" d="M63 457v258h500v-258h-500z" />
<glyph unicode="." horiz-adv-x="425" d="M39 154q0 75 49.5 125.5t124.5 50.5t124.5 -50.5t49.5 -125.5q0 -74 -50 -125.5t-124 -51.5q-73 0 -123.5 51.5t-50.5 125.5z" />
<glyph unicode="/" horiz-adv-x="950" d="M-4 -358l706 1855h252l-706 -1855h-252z" />
<glyph unicode="0" horiz-adv-x="1079" d="M82 446v529q0 220 116 344.5t343 124.5q220 0 339 -127t119 -342v-529q0 -217 -121.5 -345t-340.5 -128q-228 0 -341.5 124.5t-113.5 348.5zM367 442q0 -92 42 -145t132 -53q87 0 130.5 54.5t43.5 143.5v533q0 90 -43.5 145.5t-130.5 55.5q-89 0 -131.5 -54.5 t-42.5 -146.5v-533z" />
<glyph unicode="1" horiz-adv-x="534" d="M25 1081v269l153 67h264v-1417h-284v1130z" />
<glyph unicode="2" horiz-adv-x="1013" d="M57 0v250l455 475q75 78 111 140.5t36 135.5q0 81 -43 128t-120 47q-46 0 -79 -17.5t-49 -46t-23 -57t-7 -58.5h-281q-2 62 9.5 121.5t42.5 119.5t79 105t127.5 73t180.5 28q220 0 339 -120t119 -308q0 -132 -53 -229.5t-162 -206.5l-311 -324h537v-256h-908z" />
<glyph unicode="3" horiz-adv-x="1017" d="M35 422h280q3 -79 50 -130.5t135 -51.5q82 0 131 51.5t49 134.5q0 88 -51 137t-146 49h-188v222l285 327h-494v256h823v-254l-293 -315q76 -10 138.5 -38t112.5 -77t78 -125.5t28 -175.5q0 -204 -131 -331.5t-342 -127.5q-105 0 -187 27t-133.5 71t-85 104t-46.5 120.5 t-13 126.5z" />
<glyph unicode="4" horiz-adv-x="1101" d="M27 403v236l606 778h280v-768h152v-246h-152v-403h-278v403h-608zM319 649h316v402z" />
<glyph unicode="5" horiz-adv-x="1032" d="M72 422h280q5 -83 47 -130.5t125 -47.5q87 0 131.5 54.5t44.5 147.5v41q0 92 -42.5 144.5t-129.5 52.5q-114 0 -155 -88h-277v821h805v-256h-530v-280q26 26 85.5 47.5t135.5 21.5q389 0 389 -454v-52q0 -97 -27.5 -181t-82 -149.5t-143.5 -103t-204 -37.5 q-120 0 -209 34t-141 96.5t-77 141.5t-25 177z" />
<glyph unicode="6" horiz-adv-x="1054" d="M82 440v488q0 110 27 200t84.5 162.5t156.5 113t232 40.5q233 0 366 -133l-157 -211q-90 76 -199 76q-231 0 -227 -242v-57q26 31 89 57.5t146 26.5q397 0 397 -461v-62q0 -203 -121 -334t-339 -131q-228 0 -341.5 124.5t-113.5 342.5zM365 438q0 -90 42.5 -144 t131.5 -54q88 0 132 54.5t44 143.5v64q0 194 -174 194q-90 0 -133 -51.5t-43 -138.5v-68z" />
<glyph unicode="7" horiz-adv-x="956" d="M33 1161v256h876v-186l-463 -1231h-317l444 1161h-540z" />
<glyph unicode="8" horiz-adv-x="1040" d="M43 403q0 219 174 328q-149 106 -149 305q0 80 28 151.5t81.5 129.5t142 92.5t200.5 34.5q113 0 202 -34t143 -92t82 -130t28 -152q0 -103 -41 -180.5t-111 -124.5q176 -106 176 -328q0 -86 -30.5 -162.5t-88.5 -136.5t-150.5 -95.5t-207.5 -35.5q-119 0 -212.5 34.5 t-150.5 95t-86.5 136.5t-29.5 164zM336 414q0 -82 52 -134.5t134 -52.5q83 0 135 52t52 135q0 82 -52 134t-135 52q-84 0 -135 -52t-51 -134zM352 1024q0 -75 47 -122.5t123 -47.5q75 0 121.5 47.5t46.5 122.5t-47 122.5t-123 47.5t-122 -47t-46 -123z" />
<glyph unicode="9" horiz-adv-x="1052" d="M57 918v61q0 133 50 236.5t154.5 166t250.5 62.5q229 0 345 -124t116 -341v-487q0 -114 -27.5 -206t-84.5 -163.5t-154 -110.5t-228 -39q-231 0 -375 129l156 217q29 -22 50.5 -35t67 -27.5t95.5 -14.5q222 0 215 241v58q-23 -32 -83.5 -58t-137.5 -26q-410 0 -410 461z M338 918q0 -92 43.5 -144.5t132.5 -52.5q88 0 131 51.5t45 138.5v68q0 91 -44 145t-134 54q-88 0 -131 -54.5t-43 -144.5v-61z" />
<glyph unicode=":" horiz-adv-x="425" d="M39 154q0 75 49.5 125.5t124.5 50.5t124.5 -50.5t49.5 -125.5q0 -74 -50 -125.5t-124 -51.5q-73 0 -123.5 51.5t-50.5 125.5zM39 868q0 75 49.5 125.5t124.5 50.5t124.5 -50.5t49.5 -125.5q0 -74 -50 -125t-124 -51q-73 0 -123.5 51t-50.5 125z" />
<glyph unicode=";" horiz-adv-x="425" d="M39 156q-2 74 48.5 124t127.5 50q76 0 124 -50t48 -126q0 -67 -43 -158l-108 -223h-189l113 223q-53 14 -86.5 56.5t-34.5 103.5zM39 868q0 75 49.5 125.5t124.5 50.5t124.5 -50.5t49.5 -125.5q0 -74 -50 -125t-124 -51q-73 0 -123.5 51t-50.5 125z" />
<glyph unicode="&#x3c;" horiz-adv-x="854" d="M55 571v236l742 330v-244l-478 -199l478 -198v-246z" />
<glyph unicode="=" horiz-adv-x="970" d="M61 399v219h850v-219h-850zM61 739v219h850v-219h-850z" />
<glyph unicode="&#x3e;" horiz-adv-x="839" d="M57 250v246l463 198l-463 199v244l727 -330v-236z" />
<glyph unicode="?" horiz-adv-x="968" d="M41 1010q-1 33 2.5 68t15.5 77.5t31.5 81.5t54.5 76.5t80 64.5t111.5 43.5t146.5 16.5q208 0 325.5 -114t117.5 -290q0 -156 -92.5 -255.5t-235.5 -110.5v-279h-272v479h149q79 0 126.5 41.5t47.5 122.5q0 74 -46 121t-120 47q-49 0 -83.5 -18.5t-51.5 -49t-24 -60.5 t-7 -62h-276zM289 154q0 72 51 122t123 50t122 -50t50 -122q0 -73 -50 -123.5t-122 -50.5t-123 50.5t-51 123.5z" />
<glyph unicode="@" horiz-adv-x="1955" d="M47 578q0 271 121 483.5t338 330t493 117.5q212 0 385.5 -61.5t288 -170t176.5 -256.5t62 -321q0 -250 -117.5 -400t-306.5 -150q-90 0 -150.5 34.5t-87.5 89.5q-42 -54 -119 -90.5t-165 -36.5q-201 0 -323 122.5t-122 312.5q0 183 120.5 309.5t305.5 126.5 q72 0 129 -20.5t90 -53.5v64h240v-527q0 -62 24.5 -93.5t83.5 -31.5q75 0 121.5 92.5t46.5 237.5q0 295 -182 458t-506 163q-163 0 -298.5 -57.5t-224.5 -155.5t-138 -228.5t-49 -277.5q0 -214 96 -376.5t268 -249.5t395 -87q147 0 278 49t224 129l125 -151 q-101 -103 -268 -168.5t-363 -65.5q-182 0 -340 45.5t-276.5 128t-203.5 195t-128 250.5t-43 291zM774 584q0 -88 52.5 -144.5t138.5 -56.5q88 0 141 55t53 146t-54 146.5t-140 55.5q-87 0 -139 -56.5t-52 -145.5z" />
<glyph unicode="A" horiz-adv-x="1327" d="M-10 0l512 1417h299l536 -1417h-301l-141 389h-485l-140 -389h-280zM498 631h309l-156 426z" />
<glyph unicode="B" horiz-adv-x="1030" d="M94 0v1417h436q207 0 315.5 -100t108.5 -283q0 -94 -40.5 -171.5t-108.5 -114.5q182 -87 182 -332q0 -193 -117 -304.5t-311 -111.5h-465zM375 248h143q83 0 129.5 49.5t46.5 130.5q0 84 -46 130t-130 46h-143v-356zM375 846h131q75 0 116.5 43t41.5 121t-40.5 119.5 t-117.5 41.5h-131v-325z" />
<glyph unicode="C" horiz-adv-x="1284" d="M45 707q0 207 91 374.5t260.5 265t385.5 97.5q283 0 471 -166l-168 -213q-133 115 -301 115q-201 0 -320.5 -133.5t-119.5 -337.5q0 -203 123.5 -336t320.5 -133q167 0 304 118l165 -198q-192 -187 -469 -187q-224 0 -394 96.5t-259.5 262.5t-89.5 375z" />
<glyph unicode="D" horiz-adv-x="1171" d="M94 0v1417h287q348 0 545.5 -188t197.5 -518q0 -328 -198.5 -519.5t-544.5 -191.5h-287zM379 252h16h7q197 0 310 118q115 120 115 341q0 220 -114 338q-112 116 -311 116h-7h-16v-913z" />
<glyph unicode="E" horiz-adv-x="815" d="M94 0v1417h649v-266h-364v-295h354v-262h-354v-328h371v-266h-656z" />
<glyph unicode="F" horiz-adv-x="811" d="M94 0v1417h656v-266h-371v-295h360v-262h-360v-594h-285z" />
<glyph unicode="G" horiz-adv-x="1488" d="M45 711q0 150 53 284.5t146.5 233.5t231 157t298.5 58q210 0 355.5 -78t226.5 -203l-221 -164q-136 181 -361 181q-192 0 -312 -131t-120 -338q0 -213 125 -343t319 -130q114 0 200.5 36t137.5 88v162h-231v238h510v-762h-275v84q-137 -109 -354 -109q-160 0 -295.5 53.5 t-231 149t-149 233t-53.5 300.5z" />
<glyph unicode="H" horiz-adv-x="1323" d="M94 0v1417h285v-555h565v555h285v-1417h-285v592h-565v-592h-285z" />
<glyph unicode="I" horiz-adv-x="473" d="M94 0v1417h285v-1417h-285z" />
<glyph unicode="J" horiz-adv-x="589" d="M37 0v262h80q56 0 76 29t20 80v1046h285v-1077q0 -82 -15.5 -141t-52.5 -106t-105 -71t-167 -24q-86 0 -121 2z" />
<glyph unicode="K" horiz-adv-x="1142" d="M94 0v1417h285v-579l438 579h330l-529 -678l537 -739h-334l-442 608v-608h-285z" />
<glyph unicode="L" horiz-adv-x="778" d="M94 0v1417h285v-1151h358v-266h-643z" />
<glyph unicode="M" horiz-adv-x="1775" d="M94 0v1417h424l375 -1046l375 1046h413v-1417h-274v1059l-389 -1059h-273l-389 1059v-1059h-262z" />
<glyph unicode="N" horiz-adv-x="1368" d="M94 0v1417h295l608 -950v950h277v-1417h-283l-620 934v-934h-277z" />
<glyph unicode="O" d="M45 707q0 155 54 291t149.5 234.5t232.5 155t295 56.5q221 0 391.5 -96t261.5 -262.5t91 -374.5q0 -207 -91 -375t-260.5 -265.5t-386.5 -97.5q-166 0 -305 56t-233 153.5t-146.5 232.5t-52.5 292zM344 709q0 -204 121 -336.5t317 -132.5q201 0 320 132t119 337 q0 204 -121 337.5t-320 133.5q-134 0 -234 -62.5t-151 -168.5t-51 -240z" />
<glyph unicode="P" horiz-adv-x="991" d="M94 0v1417h438q212 0 323.5 -105t111.5 -302q0 -191 -118.5 -303.5t-316.5 -112.5h-155v-594h-283zM377 840h133q77 0 119.5 46t42.5 122t-42.5 119.5t-119.5 43.5h-133v-331z" />
<glyph unicode="Q" d="M45 707q0 155 54 291t149.5 234.5t232.5 155t295 56.5q221 0 391.5 -96t261.5 -262.5t91 -374.5q0 -234 -125 -420l118 -103l-176 -206l-135 116q-183 -125 -420 -125q-166 0 -305 56t-233 153.5t-146.5 232.5t-52.5 292zM340 709q0 -207 122.5 -341.5t319.5 -134.5 q117 0 211 48l-112 98l174 207l123 -109q47 103 47 232q0 207 -122 341t-323 134q-202 0 -321 -133.5t-119 -341.5z" />
<glyph unicode="R" horiz-adv-x="1087" d="M94 0v1417h438q212 0 323.5 -105t111.5 -302q0 -121 -51.5 -211t-145.5 -140l336 -659h-305l-301 606h-123v-606h-283zM377 840h133q77 0 119.5 46t42.5 122t-42.5 119.5t-119.5 43.5h-133v-331z" />
<glyph unicode="S" horiz-adv-x="1019" d="M49 436h270v-8q1 -90 43 -148q44 -61 142 -61q77 0 125.5 43.5t48.5 120.5q0 66 -38.5 108t-113.5 74q-19 9 -108 45.5t-137 63.5q-103 54 -157 148.5t-54 221.5q0 176 118.5 288t315.5 112q116 0 201.5 -33.5t133.5 -92.5q47 -60 69 -134q18 -63 19 -136q0 -14 -1 -28 h-262q0 80 -42 130t-118 50q-71 0 -111.5 -39.5t-40.5 -101.5q0 -55 32 -94t101 -68q25 -10 97 -39t116 -49q134 -60 203.5 -155t69.5 -240q0 -201 -129.5 -321t-337.5 -120q-108 0 -191.5 27.5t-134 72t-81.5 106.5q-31 63 -41 125q-8 48 -8 100q0 16 1 32z" />
<glyph unicode="T" horiz-adv-x="870" d="M35 1151v266h801v-266h-258v-1151h-285v1151h-258z" />
<glyph unicode="U" horiz-adv-x="1302" d="M86 553v864h285v-864q0 -145 70.5 -229t211.5 -84q135 0 207 86t72 229v862h285v-862q0 -170 -63.5 -300t-193.5 -206t-311 -76q-280 0 -421.5 155t-141.5 425z" />
<glyph unicode="V" horiz-adv-x="1353" d="M-10 1417h319l375 -1059l377 1059h303l-535 -1417h-307z" />
<glyph unicode="W" horiz-adv-x="2025" d="M-4 1417h311l277 -1038l286 1038h306l286 -1038l275 1038h293l-402 -1417h-328l-284 983l-287 -983h-321z" />
<glyph unicode="X" horiz-adv-x="1286" d="M-10 0l483 733l-461 684h346l293 -438l287 438h334l-457 -690l481 -727h-329l-330 487l-330 -487h-317z" />
<glyph unicode="Y" horiz-adv-x="1044" d="M-18 1417h317l229 -430l234 430h301l-401 -704v-713h-285v709z" />
<glyph unicode="Z" horiz-adv-x="1191" d="M53 0v193l682 962h-674v262h1074v-192l-691 -965h695v-260h-1086z" />
<glyph unicode="[" horiz-adv-x="548" d="M82 -358v1988h434v-244h-174v-1501h174v-243h-434z" />
<glyph unicode="\" horiz-adv-x="950" d="M-4 1497h254l704 -1855h-252z" />
<glyph unicode="]" horiz-adv-x="548" d="M33 -115h174v1501h-174v244h434v-1988h-434v243z" />
<glyph unicode="^" horiz-adv-x="1009" d="M29 788l338 629h278l336 -629h-281l-196 369l-199 -369h-276z" />
<glyph unicode="_" horiz-adv-x="1267" d="M61 -63h1145v-220h-1145v220z" />
<glyph unicode="`" horiz-adv-x="974" d="M209 1454h268l156 -283h-258z" />
<glyph unicode="a" horiz-adv-x="960" d="M43 358q0 156 104.5 258.5t272.5 102.5q122 0 194 -45v55q0 75 -35 118.5t-108 43.5q-70 0 -101.5 -37t-31.5 -90h-256q5 160 103 252t286 92q115 0 197 -30.5t128.5 -88t67.5 -130.5t21 -169v-690h-230v70q-79 -84 -231 -84q-167 0 -274 102t-107 270zM301 360 q0 -69 45 -113t115 -44q68 0 112.5 44t44.5 113t-45 112.5t-114 43.5q-70 0 -114 -44.5t-44 -111.5z" />
<glyph unicode="b" horiz-adv-x="1263" d="M80 0v1497h274v-510q49 53 136 90t192 37q247 0 395 -155.5t148 -409.5q0 -246 -155.5 -406.5t-405.5 -160.5q-100 0 -186 35t-138 87v-104h-260zM346 549q0 -142 83.5 -232t219.5 -90q137 0 219 90t82 232q0 141 -84 231t-219 90q-137 0 -219 -89.5t-82 -231.5z" />
<glyph unicode="c" horiz-adv-x="999" d="M39 545q0 158 72 288t202 205.5t291 75.5q242 0 385 -147l-158 -191q-94 90 -225 90q-133 0 -213 -90t-80 -229q0 -143 86 -230.5t209 -87.5q122 0 230 90l151 -184q-59 -63 -157 -108t-226 -45q-127 0 -234 43.5t-179.5 119t-113 179t-40.5 221.5z" />
<glyph unicode="d" horiz-adv-x="1263" d="M39 545q0 158 69 287.5t197 205.5t289 76q197 0 315 -106v489h275v-1497h-256v109q-52 -56 -138 -91.5t-186 -35.5q-253 0 -409 157t-156 406zM313 549q0 -139 85 -230.5t218 -91.5q136 0 219 91.5t83 230.5q0 138 -84.5 229.5t-217.5 91.5q-136 0 -219.5 -91t-83.5 -230 z" />
<glyph unicode="e" horiz-adv-x="1146" d="M39 545q0 162 68 292t191.5 203.5t279.5 73.5q246 0 391 -148t145 -395q0 -65 -4 -112h-782q11 -109 83 -171.5t189 -62.5q173 0 277 164l202 -123q-27 -55 -66.5 -102.5t-97 -90t-139 -67t-176.5 -24.5q-252 0 -406.5 152.5t-154.5 410.5zM334 666h495q-9 95 -77 156 t-177 61q-102 0 -166 -60.5t-75 -156.5z" />
<glyph unicode="f" horiz-adv-x="589" d="M25 864v232h102v49q0 172 80.5 263t267.5 91q61 0 88 -2v-229h-51q-63 0 -87 -33.5t-24 -91.5v-47h162v-232h-162v-864h-274v864h-102z" />
<glyph unicode="g" horiz-adv-x="1259" d="M39 545q0 158 70 287.5t198 205.5t289 76q104 0 189 -32t139 -89v103h258v-912q0 -151 -43 -260.5t-123 -174t-184 -94.5t-236 -30q-120 0 -226.5 28t-181.5 71l88 217q143 -80 322 -80q137 0 223.5 57.5t87.5 171.5v14q-42 -50 -119.5 -86t-183.5 -36q-253 0 -410 156 t-157 407zM313 547q0 -139 85 -230.5t218 -91.5q136 0 219 91.5t83 230.5q0 140 -84 231.5t-218 91.5q-136 0 -219.5 -91.5t-83.5 -231.5z" />
<glyph unicode="h" horiz-adv-x="1003" d="M80 0v1497h274v-483q83 94 232 94q93 0 161 -30t106.5 -84t56.5 -121t18 -150v-723h-275v690q0 82 -37 128t-110 46q-72 0 -112 -47t-40 -127v-690h-274z" />
<glyph unicode="i" horiz-adv-x="434" d="M53 1327q0 69 48 117.5t116 48.5q69 0 116.5 -48.5t47.5 -117.5q0 -68 -47.5 -115t-116.5 -47q-68 0 -116 47.5t-48 114.5zM80 0v1096h274v-1096h-274z" />
<glyph unicode="j" horiz-adv-x="434" d="M-76 -121h49q64 0 85.5 33t21.5 92v1092h274v-1096q0 -171 -81 -264.5t-269 -93.5h-80v237zM53 1327q0 69 47.5 117.5t116.5 48.5q68 0 116 -48.5t48 -117.5q0 -67 -48 -114.5t-116 -47.5q-69 0 -116.5 47t-47.5 115z" />
<glyph unicode="k" horiz-adv-x="1015" d="M80 0v1497h274v-831l326 430h321l-395 -506l410 -590h-332l-330 483v-483h-274z" />
<glyph unicode="l" horiz-adv-x="434" d="M80 0v1497h274v-1497h-274z" />
<glyph unicode="m" horiz-adv-x="1568" d="M80 0v1096h274v-82q78 94 236 94q177 0 260 -119q102 119 274 119q98 0 171 -30t115.5 -84t62.5 -121.5t20 -149.5v-723h-274v690q0 81 -38 127.5t-110 46.5q-71 0 -109 -48.5t-38 -125.5v-690h-275v690q0 80 -37.5 127t-107.5 47q-72 0 -111 -47.5t-39 -130.5v-686h-274 z" />
<glyph unicode="n" horiz-adv-x="1003" d="M80 0v1096h274v-82q29 36 86 65t146 29q93 0 161 -30t106.5 -84t56.5 -121t18 -150v-723h-275v690q0 82 -37 128t-110 46q-72 0 -112 -47t-40 -127v-690h-274z" />
<glyph unicode="o" horiz-adv-x="1222" d="M39 545q0 245 162 407t409 162q170 0 301.5 -73.5t202 -202t70.5 -289.5q0 -160 -72.5 -289t-204 -203.5t-297.5 -74.5q-254 0 -412.5 159t-158.5 404zM313 547q0 -139 84 -228.5t215 -89.5q133 0 215 90t82 228t-84 228.5t-215 90.5q-133 0 -215 -89.5t-82 -229.5z" />
<glyph unicode="p" horiz-adv-x="1263" d="M80 -358v1454h260v-105q123 123 336 123q247 0 398 -157t151 -406q0 -159 -66.5 -287.5t-195.5 -205t-299 -76.5q-99 0 -179.5 31.5t-130.5 74.5v-446h-274zM346 547q0 -141 84 -231.5t219 -90.5q137 0 219 90t82 232q0 141 -84 232t-219 91q-137 0 -219 -90.5 t-82 -232.5z" />
<glyph unicode="q" horiz-adv-x="1263" d="M39 549q0 246 156 405.5t405 159.5q100 0 188 -33t136 -88v103h260v-1454h-275v452q-42 -45 -127 -78.5t-182 -33.5q-251 0 -406 156t-155 411zM313 549q0 -141 84.5 -232.5t218.5 -91.5q136 0 219 91t83 233q0 139 -85.5 230t-216.5 91q-137 0 -220 -91t-83 -230z" />
<glyph unicode="r" horiz-adv-x="600" d="M80 0v1096h274v-88q65 92 213 92v-287h-69q-77 0 -110.5 -36t-33.5 -109v-668h-274z" />
<glyph unicode="s" horiz-adv-x="862" d="M37 354h262q0 -147 133 -147q56 0 92.5 26t36.5 72q0 47 -25 72.5t-83 40.5q-132 36 -166 49q-115 42 -171.5 121t-56.5 203q0 138 105.5 228.5t269.5 90.5q176 0 273 -88t98 -258h-252q-3 133 -125 133q-49 0 -79 -25.5t-30 -66.5q0 -77 97 -103q23 -7 71.5 -18.5 t77.5 -19.5q137 -41 199.5 -117t62.5 -221q0 -160 -114.5 -250t-284.5 -90q-88 0 -157 20t-113.5 54.5t-72.5 82t-39 99.5q-9 44 -9 94v18z" />
<glyph unicode="t" horiz-adv-x="614" d="M25 864v232h102v172h274v-172h168v-232h-168v-510q0 -62 23.5 -89t81.5 -27h63v-234l-19 -4q-18 -3 -53 -6.5t-77 -3.5q-293 0 -293 286v588h-102z" />
<glyph unicode="u" horiz-adv-x="997" d="M76 375v721h274v-688q0 -82 35.5 -128.5t106.5 -46.5q72 0 111.5 48.5t39.5 128.5v686h275v-1096h-273v82q-29 -37 -86 -65.5t-143 -28.5q-89 0 -155.5 28.5t-106.5 81.5t-59 122t-19 155z" />
<glyph unicode="v" horiz-adv-x="1079" d="M-2 1096h303l248 -752l248 752h284l-387 -1096h-301z" />
<glyph unicode="w" horiz-adv-x="1691" d="M2 1096h309l197 -744l203 744h293l202 -744l197 744h287l-320 -1096h-303l-215 702l-211 -702h-309z" />
<glyph unicode="x" horiz-adv-x="1097" d="M-2 0l397 559l-377 537h318l221 -312l221 312h301l-374 -529l395 -567h-307l-248 344l-250 -344h-297z" />
<glyph unicode="y" horiz-adv-x="1085" d="M-2 1096h303l256 -680l248 680h282l-552 -1454h-267l148 401z" />
<glyph unicode="z" horiz-adv-x="888" d="M43 0v199l465 669h-457v228h795v-199l-477 -670h477v-227h-803z" />
<glyph unicode="{" horiz-adv-x="622" d="M33 514v254h2q74 0 97.5 32t23.5 105v309q0 416 417 416h19v-244h-17q-88 0 -123.5 -43t-35.5 -126v-363q0 -181 -140 -215q140 -30 140 -215v-369q0 -84 35.5 -127t123.5 -43h17v-243h-19q-417 0 -417 415v320q0 73 -23.5 105t-97.5 32h-2z" />
<glyph unicode="|" horiz-adv-x="497" d="M133 -358v1855h232v-1855h-232z" />
<glyph unicode="}" horiz-adv-x="622" d="M33 -115h14q89 0 124.5 43t35.5 127v369q0 185 141 215q-141 33 -141 215v363q0 84 -35.5 126.5t-124.5 42.5h-14v244h16q418 0 418 -416v-309q0 -73 23.5 -105t97.5 -32h4v-254h-4q-74 0 -97.5 -32t-23.5 -105v-320q0 -415 -418 -415h-16v243z" />
<glyph unicode="~" horiz-adv-x="974" d="M37 440q-3 156 76 257.5t221 101.5q81 0 164 -49q11 -6 34.5 -19.5t34.5 -18.5t28.5 -10.5t33.5 -5.5q76 0 80 103h229q3 -161 -74.5 -261t-216.5 -100q-87 0 -168 49q-3 1 -17.5 9.5t-17.5 10t-15.5 8t-17 8t-14.5 5.5t-16 5t-14.5 2.5t-16.5 1.5q-41 0 -61.5 -27.5 t-22.5 -69.5h-229z" />
<glyph unicode="&#xa1;" horiz-adv-x="483" d="M68 1055q0 71 51 121.5t121 50.5q72 0 123 -50.5t51 -121.5q0 -72 -51 -123t-123 -51q-71 0 -121.5 51t-50.5 123zM102 -215v1040h279v-1040h-279z" />
<glyph unicode="&#xa2;" horiz-adv-x="1013" d="M39 545q0 218 134.5 375t346.5 186v131h152v-129q194 -19 327 -152l-151 -184q-72 76 -176 94v-639q96 17 180 97l149 -183q-54 -56 -137 -100t-192 -53v-129h-152v131q-219 27 -350 181.5t-131 373.5zM307 547q0 -119 58.5 -200.5t154.5 -110.5v624 q-100 -27 -156.5 -111.5t-56.5 -201.5z" />
<glyph unicode="&#xa3;" horiz-adv-x="1112" d="M49 0v254h121v311h-121v242h121v201q0 195 116 315.5t332 120.5q102 0 182 -29t129 -74t80 -105.5t42.5 -119.5t9.5 -119h-281q-1 31 -7.5 58.5t-23 56.5t-50 46.5t-81.5 17.5q-83 0 -123 -51t-40 -136v-182h280v-242h-280v-311h614v-254h-1020z" />
<glyph unicode="&#xa5;" horiz-adv-x="1075" d="M4 1417h330l213 -332l211 332h305l-381 -573h272v-205h-278v-127h278v-205h-278v-307h-283v307h-278v205h278v127h-278v205h270z" />
<glyph unicode="&#xa6;" horiz-adv-x="497" d="M133 -358v880h232v-880h-232zM133 639v858h232v-858h-232z" />
<glyph unicode="&#xa7;" horiz-adv-x="1179" d="M47 604q0 109 55.5 183.5t143.5 107.5q-72 93 -72 227q0 78 27.5 147t80 123t135.5 85.5t187 31.5q101 0 177.5 -26.5t121 -67t72 -97.5t37 -110t8.5 -112h-272q0 65 -35 114.5t-113 49.5q-73 0 -108 -35.5t-35 -89.5q0 -53 33 -89t106 -61l256 -88q143 -50 209.5 -137.5 t66.5 -216.5q0 -105 -54.5 -185.5t-133.5 -113.5q70 -78 70 -228q0 -164 -117.5 -276.5t-321.5 -112.5q-115 0 -199 32t-132.5 91t-71 133.5t-21.5 167.5h277q0 -74 35 -124t116 -50q75 0 113.5 35.5t38.5 93.5q0 55 -33 90.5t-108 61.5l-279 100q-260 94 -260 346zM326 631 q0 -84 88 -113l268 -98q64 -23 116 2t52 92q0 82 -86 111l-268 98q-72 27 -121 -3t-49 -89z" />
<glyph unicode="&#xa8;" horiz-adv-x="974" d="M160 1325q0 62 43.5 105t107.5 43q66 0 110 -42.5t44 -105.5q0 -64 -45 -107.5t-109 -43.5q-65 0 -108 43t-43 108zM537 1325q0 62 43 105t106 43q67 0 111.5 -42.5t44.5 -105.5q0 -64 -45.5 -107.5t-110.5 -43.5q-63 0 -106 43.5t-43 107.5z" />
<glyph unicode="&#xa9;" horiz-adv-x="1581" d="M47 707q0 205 92 373t261 266t382 98q170 0 312.5 -56t238.5 -154t149.5 -232t53.5 -289q0 -154 -53 -289.5t-148 -235t-235.5 -157.5t-306.5 -58q-223 0 -394 97t-261.5 263t-90.5 374zM225 707q0 -122 39.5 -227t111.5 -182t179.5 -121t237.5 -44q173 0 302 75 t195 205.5t66 299.5q0 255 -153.5 413t-420.5 158q-251 0 -404 -162t-153 -415zM416 707q0 174 111 288.5t292 114.5q158 0 262 -90l-129 -168q-51 51 -137 51q-82 0 -130 -54t-48 -140q0 -84 51 -138.5t133 -54.5t133 47l127 -153q-101 -101 -258 -101q-187 0 -297 113 t-110 285z" />
<glyph unicode="&#xaa;" horiz-adv-x="733" d="M41 860q0 122 77.5 197.5t205.5 75.5q90 0 141 -37v47q0 117 -96 117q-51 0 -74 -26t-25 -65h-198q3 123 77 192t220 69q307 0 307 -314v-524h-178v47q-60 -57 -170 -57q-124 0 -205 75t-82 203zM244 864q0 -50 30.5 -80t81.5 -30q50 0 81.5 30t31.5 80q0 49 -32 80 t-83 31q-49 0 -79.5 -30.5t-30.5 -80.5z" />
<glyph unicode="&#xab;" horiz-adv-x="800" d="M29 549l164 350h235l-168 -350l168 -346h-235zM373 549l166 350h235l-168 -350l166 -346h-233z" />
<glyph unicode="&#xad;" horiz-adv-x="626" d="M63 457v258h500v-258h-500z" />
<glyph unicode="&#xae;" horiz-adv-x="909" d="M31 1094q0 178 116.5 297.5t301.5 119.5q193 0 311.5 -118.5t118.5 -296.5q0 -176 -117.5 -297t-306.5 -121t-306.5 118t-117.5 298zM137 1094q0 -139 86 -229.5t230 -90.5q147 0 231 89.5t84 232.5q0 142 -85 229.5t-234 87.5q-141 0 -226.5 -89.5t-85.5 -229.5z M299 874v451h178q73 0 112.5 -36.5t39.5 -100.5q0 -74 -62 -117l78 -197h-125l-67 170h-33v-170h-121zM420 1143h41q19 0 31 10.5t12 30.5q0 39 -43 39h-41v-80z" />
<glyph unicode="&#xaf;" horiz-adv-x="819" d="M162 1198v201h495v-201h-495z" />
<glyph unicode="&#xb0;" horiz-adv-x="731" d="M39 1116q0 138 91 231t232 93q149 0 239.5 -91t90.5 -229q0 -140 -90 -231.5t-237 -91.5q-148 0 -237 90.5t-89 228.5zM227 1116q0 -59 39.5 -100t100.5 -41t98 41t37 100q0 61 -38.5 103.5t-98.5 42.5q-62 0 -100 -42t-38 -104z" />
<glyph unicode="&#xb2;" horiz-adv-x="661" d="M45 686v152l260 204q49 38 68.5 64t19.5 61q0 32 -18.5 53t-52.5 21q-76 0 -76 -84h-199q-2 46 11.5 91.5t43.5 87.5t87 68t133 26q134 0 209 -67t75 -183q0 -70 -31.5 -120t-95.5 -97l-119 -101h254v-176h-569z" />
<glyph unicode="&#xb3;" horiz-adv-x="655" d="M35 928h203q0 -40 21.5 -63t59.5 -23t59 22.5t21 59.5q0 38 -23.5 59t-66.5 21h-110v131l137 112h-254v170h485v-160l-135 -112q70 -10 123 -66.5t53 -154.5q0 -110 -77.5 -180t-215.5 -70q-135 0 -206.5 69t-73.5 185z" />
<glyph unicode="&#xb4;" horiz-adv-x="974" d="M369 1171l155 283h269l-166 -283h-258z" />
<glyph unicode="&#xb6;" horiz-adv-x="950" d="M27 1133q0 127 85.5 205.5t223.5 78.5h192v-1417h-209v840q-127 3 -209.5 83.5t-82.5 209.5zM645 0v1417h211v-1417h-211z" />
<glyph unicode="&#xb7;" horiz-adv-x="456" d="M53 672q0 75 49.5 125.5t124.5 50.5t124.5 -50.5t49.5 -125.5q0 -74 -50 -125t-124 -51q-73 0 -123.5 51t-50.5 125z" />
<glyph unicode="&#xb8;" horiz-adv-x="819" d="M260 31h156v-105q159 -44 159 -219q0 -113 -72.5 -175t-201.5 -62h-41v155h43q90 3 90 82q0 38 -24 58t-66 20h-43v246z" />
<glyph unicode="&#xb9;" horiz-adv-x="393" d="M27 1206v166l100 45h188v-731h-209v551z" />
<glyph unicode="&#xba;" horiz-adv-x="905" d="M27 1004q0 186 120.5 306t305.5 120q192 0 310 -118.5t118 -303.5q0 -184 -120 -304t-308 -120q-191 0 -308.5 118t-117.5 302zM244 1006q0 -97 59 -159.5t152 -62.5t150 62t57 160t-59 160.5t-150 62.5q-95 0 -152 -62t-57 -161z" />
<glyph unicode="&#xbb;" horiz-adv-x="800" d="M29 203l166 348l-166 348h233l166 -348l-166 -348h-233zM373 203l168 348l-166 348h233l166 -348l-166 -348h-235z" />
<glyph unicode="&#xbc;" horiz-adv-x="1394" d="M6 0l1053 1417h221l-1055 -1417h-219zM90 1206v166l100 45h189v-731h-209v551zM705 143v179l344 415h202v-409h78v-185h-78v-143h-200v143h-346zM901 328h150v180z" />
<glyph unicode="&#xbd;" horiz-adv-x="1427" d="M6 0l1053 1417h221l-1055 -1417h-219zM90 1206v166l100 45h189v-731h-209v551zM795 0v154l258 202q49 38 68.5 64t19.5 61q0 32 -19 53t-53 21q-76 0 -76 -84h-198q-2 46 11 91.5t43 87t87 67.5t133 26q135 0 211 -66.5t76 -182.5q0 -70 -32.5 -122.5t-96.5 -97.5 l-119 -98h256v-176h-569z" />
<glyph unicode="&#xbe;" horiz-adv-x="1544" d="M61 928h203q0 -40 22 -63t60 -23t59 22.5t21 59.5q0 38 -23.5 59t-66.5 21h-111v131l137 112h-253v170h485v-160l-135 -112q70 -10 123 -66.5t53 -154.5q0 -110 -77.5 -180t-215.5 -70q-136 0 -207.5 69t-73.5 185zM162 0l1052 1417h222l-1055 -1417h-219zM856 143v179 l344 415h203v-409h78v-185h-78v-143h-201v143h-346zM1051 328h151v180z" />
<glyph unicode="&#xbf;" horiz-adv-x="968" d="M43 166q0 154 92.5 254t235.5 115v290h272v-491h-149q-81 0 -128 -41.5t-47 -122.5q0 -73 45.5 -120.5t120.5 -47.5q49 0 83.5 18.5t51.5 49t24 61t7 62.5h275q2 -48 -6 -98.5t-36.5 -112t-75 -108t-131 -78.5t-194.5 -32q-207 0 -323.5 113.5t-116.5 288.5zM334 1057 q0 72 50 122t122 50t123 -50t51 -122q0 -73 -51 -123.5t-123 -50.5t-122 50.5t-50 123.5z" />
<glyph unicode="&#xc0;" horiz-adv-x="1327" d="M-12 0l512 1417h299l536 -1417h-301l-141 389h-485l-140 -389h-280zM350 1749h268l150 -266h-260zM496 631h309l-156 426z" />
<glyph unicode="&#xc1;" horiz-adv-x="1327" d="M-12 0l512 1417h299l536 -1417h-301l-141 389h-485l-140 -389h-280zM496 631h309l-156 426zM524 1483l150 266h272l-158 -266h-264z" />
<glyph unicode="&#xc2;" horiz-adv-x="1327" d="M-12 0l512 1417h299l536 -1417h-301l-141 389h-485l-140 -389h-280zM295 1483l211 266h285l210 -266h-251l-101 110l-102 -110h-252zM496 631h309l-156 426z" />
<glyph unicode="&#xc3;" horiz-adv-x="1327" d="M-12 0l512 1417h299l536 -1417h-301l-141 389h-485l-140 -389h-280zM305 1489q-6 119 56 196.5t167 77.5q48 0 88 -17.5t70.5 -34.5t54.5 -17q56 0 56 71h196q4 -124 -56 -199t-163 -75q-44 0 -85 17.5t-74 35t-56 17.5q-59 0 -59 -72h-195zM496 631h309l-156 426z" />
<glyph unicode="&#xc4;" horiz-adv-x="1327" d="M-10 0l512 1417h299l536 -1417h-301l-141 389h-485l-140 -389h-280zM295 1628q0 63 43 106.5t106 43.5q66 0 111 -43.5t45 -106.5q0 -64 -45.5 -106.5t-110.5 -42.5q-63 0 -106 42.5t-43 106.5zM498 631h309l-156 426zM698 1628q0 63 44 106.5t108 43.5q66 0 110 -43.5 t44 -106.5q0 -64 -44.5 -106.5t-109.5 -42.5t-108.5 42.5t-43.5 106.5z" />
<glyph unicode="&#xc5;" horiz-adv-x="1327" d="M-10 0l512 1417h299l536 -1417h-301l-141 389h-485l-140 -389h-280zM424 1677q0 95 63 157t160 62q104 0 167 -60.5t63 -154.5q0 -96 -63 -157.5t-165 -61.5q-99 0 -162 61t-63 154zM498 631h309l-156 426zM563 1679q0 -41 24 -65.5t64 -24.5t63 24.5t23 67.5 q0 39 -23 63.5t-65 24.5q-39 0 -62.5 -25t-23.5 -65z" />
<glyph unicode="&#xc6;" horiz-adv-x="1599" d="M-23 0l781 1417h770v-266h-365v-295h353v-262h-353v-328h369v-266h-653v346h-400l-184 -346h-318zM606 588h273v510z" />
<glyph unicode="&#xc7;" horiz-adv-x="1284" d="M47 707q0 207 91 374.5t260.5 265t385.5 97.5q283 0 471 -166l-168 -213q-133 115 -301 115q-201 0 -320.5 -133.5t-119.5 -337.5q0 -203 124 -336t321 -133q166 0 303 118l166 -198q-192 -187 -469 -187h-27v-47q160 -44 160 -219q0 -113 -73 -175t-202 -62h-41v155h43 q90 3 90 82q0 38 -24 58t-66 20h-43v207q-259 54 -410 248.5t-151 466.5z" />
<glyph unicode="&#xc8;" horiz-adv-x="815" d="M94 0v1417h649v-266h-364v-295h354v-262h-354v-328h371v-266h-656zM158 1749h268l149 -266h-260z" />
<glyph unicode="&#xc9;" horiz-adv-x="815" d="M94 0v1417h649v-266h-364v-295h354v-262h-354v-328h371v-266h-656zM268 1483l150 266h272l-158 -266h-264z" />
<glyph unicode="&#xca;" horiz-adv-x="815" d="M63 1483l211 266h285l211 -266h-252l-100 110l-103 -110h-252zM94 0v1417h649v-266h-364v-295h354v-262h-354v-328h371v-266h-656z" />
<glyph unicode="&#xcb;" horiz-adv-x="815" d="M74 1628q0 63 43 106.5t106 43.5q66 0 111 -43.5t45 -106.5q0 -64 -45.5 -106.5t-110.5 -42.5q-63 0 -106 42.5t-43 106.5zM94 0v1417h649v-266h-364v-295h354v-262h-354v-328h371v-266h-656zM477 1628q0 63 44 106.5t108 43.5q66 0 109.5 -43.5t43.5 -106.5 q0 -64 -44 -106.5t-109 -42.5t-108.5 42.5t-43.5 106.5z" />
<glyph unicode="&#xcc;" horiz-adv-x="473" d="M-53 1749h268l150 -266h-261zM94 0v1417h285v-1417h-285z" />
<glyph unicode="&#xcd;" horiz-adv-x="473" d="M94 0v1417h285v-1417h-285zM106 1483l150 266h272l-157 -266h-265z" />
<glyph unicode="&#xce;" horiz-adv-x="473" d="M-111 1483l203 266h285l205 -266h-250l-96 112l-97 -112h-250zM94 0v1417h285v-1417h-285z" />
<glyph unicode="&#xcf;" horiz-adv-x="473" d="M-111 1628q0 63 44 106.5t108 43.5q66 0 110 -43.5t44 -106.5q0 -64 -44.5 -106.5t-109.5 -42.5t-108.5 42.5t-43.5 106.5zM94 0v1417h285v-1417h-285zM279 1628q0 63 43 106.5t106 43.5q66 0 111 -43.5t45 -106.5q0 -64 -45.5 -106.5t-110.5 -42.5q-63 0 -106 42.5 t-43 106.5z" />
<glyph unicode="&#xd0;" horiz-adv-x="1202" d="M16 586v266h107v565h287q348 0 545.5 -188t197.5 -518q0 -328 -198.5 -519.5t-544.5 -191.5h-287v586h-107zM408 252h16q202 -2 317 117.5t115 341.5q0 220 -114 338t-318 116h-16v-313h200v-266h-200v-334z" />
<glyph unicode="&#xd1;" horiz-adv-x="1368" d="M92 0v1417h295l608 -950v950h277v-1417h-283l-620 934v-934h-277zM360 1489q-6 119 56.5 196.5t167.5 77.5q48 0 88 -17.5t70.5 -34.5t54.5 -17q55 0 55 71h197q4 -124 -56.5 -199t-163.5 -75q-44 0 -85 17.5t-74 35t-56 17.5q-59 0 -59 -72h-195z" />
<glyph unicode="&#xd2;" d="M45 707q0 155 54 291t149.5 234.5t232.5 155t295 56.5q221 0 391.5 -96t261.5 -262.5t91 -374.5q0 -207 -91 -375t-260.5 -265.5t-386.5 -97.5q-166 0 -305 56t-233 153.5t-146.5 232.5t-52.5 292zM344 709q0 -204 121 -336.5t317 -132.5q201 0 320 132t119 337 q0 204 -121 337.5t-320 133.5q-134 0 -234 -62.5t-151 -168.5t-51 -240zM498 1749h268l149 -266h-260z" />
<glyph unicode="&#xd3;" d="M45 707q0 155 54 291t149.5 234.5t232.5 155t295 56.5q221 0 391.5 -96t261.5 -262.5t91 -374.5q0 -207 -91 -375t-260.5 -265.5t-386.5 -97.5q-166 0 -305 56t-233 153.5t-146.5 232.5t-52.5 292zM344 709q0 -204 121 -336.5t317 -132.5q201 0 320 132t119 337 q0 204 -121 337.5t-320 133.5q-134 0 -234 -62.5t-151 -168.5t-51 -240zM639 1483l149 266h273l-158 -266h-264z" />
<glyph unicode="&#xd4;" d="M45 707q0 155 54 291t149.5 234.5t232.5 155t295 56.5q221 0 391.5 -96t261.5 -262.5t91 -374.5q0 -207 -91 -375t-260.5 -265.5t-386.5 -97.5q-166 0 -305 56t-233 153.5t-146.5 232.5t-52.5 292zM344 709q0 -204 121 -336.5t317 -132.5q201 0 320 132t119 337 q0 204 -121 337.5t-320 133.5q-134 0 -234 -62.5t-151 -168.5t-51 -240zM428 1483l211 266h285l211 -266h-252l-101 110l-102 -110h-252z" />
<glyph unicode="&#xd5;" d="M45 707q0 155 54 291t149.5 234.5t232.5 155t295 56.5q221 0 391.5 -96t261.5 -262.5t91 -374.5q0 -207 -91 -375t-260.5 -265.5t-386.5 -97.5q-166 0 -305 56t-233 153.5t-146.5 232.5t-52.5 292zM344 709q0 -204 121 -336.5t317 -132.5q201 0 320 132t119 337 q0 204 -121 337.5t-320 133.5q-134 0 -234 -62.5t-151 -168.5t-51 -240zM436 1489q-6 119 56 196.5t167 77.5q48 0 88 -17.5t70.5 -34.5t54.5 -17q56 0 56 71h196q4 -124 -56 -199t-163 -75q-44 0 -85 17.5t-74 35t-56 17.5q-59 0 -59 -72h-195z" />
<glyph unicode="&#xd6;" d="M45 707q0 155 54 291t149.5 234.5t232.5 155t295 56.5q221 0 391.5 -96t261.5 -262.5t91 -374.5q0 -207 -91 -375t-260.5 -265.5t-386.5 -97.5q-166 0 -305 56t-233 153.5t-146.5 232.5t-52.5 292zM344 709q0 -204 121 -336.5t317 -132.5q201 0 320 132t119 337 q0 204 -121 337.5t-320 133.5q-134 0 -234 -62.5t-151 -168.5t-51 -240zM428 1628q0 63 43.5 106.5t106.5 43.5q66 0 110.5 -43.5t44.5 -106.5q0 -64 -45 -106.5t-110 -42.5q-63 0 -106.5 42.5t-43.5 106.5zM831 1628q0 63 44 106.5t108 43.5q66 0 110 -43.5t44 -106.5 q0 -64 -44.5 -106.5t-109.5 -42.5t-108.5 42.5t-43.5 106.5z" />
<glyph unicode="&#xd7;" horiz-adv-x="864" d="M35 449l237 237l-237 238l160 161l237 -239l238 237l159 -159l-237 -238l237 -237l-157 -160l-240 237l-237 -237z" />
<glyph unicode="&#xd8;" d="M45 707q0 154 54 290t149 234t231 154.5t293 56.5q238 0 395 -107l103 117l182 -160l-98 -112q72 -87 114.5 -207.5t42.5 -261.5q0 -205 -90.5 -372t-259 -264.5t-383.5 -97.5q-229 0 -389 105l-106 -123l-183 158l103 119q-158 191 -158 471zM338 709q0 -143 59 -252 l592 676q-94 51 -213 51q-200 0 -319 -134t-119 -341zM567 285q96 -49 209 -49q201 0 321 133.5t120 339.5q0 130 -60 247z" />
<glyph unicode="&#xd9;" horiz-adv-x="1302" d="M86 553v864h285v-864q0 -145 70.5 -229t211.5 -84q135 0 207 86t72 229v862h285v-862q0 -170 -63.5 -300t-193.5 -206t-311 -76q-280 0 -421.5 155t-141.5 425zM381 1749h268l150 -266h-260z" />
<glyph unicode="&#xda;" horiz-adv-x="1302" d="M86 553v864h285v-864q0 -145 70.5 -229t211.5 -84q135 0 207 86t72 229v862h285v-862q0 -170 -63.5 -300t-193.5 -206t-311 -76q-280 0 -421.5 155t-141.5 425zM510 1483l149 266h273l-158 -266h-264z" />
<glyph unicode="&#xdb;" horiz-adv-x="1302" d="M86 553v864h285v-864q0 -145 70.5 -229t211.5 -84q135 0 207 86t72 229v862h285v-862q0 -170 -63.5 -300t-193.5 -206t-311 -76q-280 0 -421.5 155t-141.5 425zM299 1483l211 266h285l211 -266h-252l-101 110l-102 -110h-252z" />
<glyph unicode="&#xdc;" horiz-adv-x="1302" d="M86 553v864h285v-864q0 -145 70.5 -229t211.5 -84q135 0 207 86t72 229v862h285v-862q0 -170 -63.5 -300t-193.5 -206t-311 -76q-280 0 -421.5 155t-141.5 425zM295 1628q0 63 43 106.5t106 43.5q66 0 111 -43.5t45 -106.5q0 -64 -45.5 -106.5t-110.5 -42.5 q-63 0 -106 42.5t-43 106.5zM698 1628q0 63 44 106.5t108 43.5q66 0 110 -43.5t44 -106.5q0 -64 -44.5 -106.5t-109.5 -42.5t-108.5 42.5t-43.5 106.5z" />
<glyph unicode="&#xdd;" horiz-adv-x="1044" d="M-18 1417h317l229 -430l234 430h301l-401 -704v-713h-285v709zM399 1483l150 266h272l-157 -266h-265z" />
<glyph unicode="&#xde;" horiz-adv-x="1005" d="M94 0v1417h283v-284h155q212 0 323.5 -105.5t111.5 -302.5q0 -196 -118.5 -309t-316.5 -113h-155v-303h-283zM377 555h133q77 0 119.5 45t42.5 123q0 76 -42.5 119t-119.5 43h-133v-330z" />
<glyph unicode="&#xdf;" horiz-adv-x="1069" d="M80 0v1096q0 88 23 160.5t72 130.5t134 90t199 32q193 0 301.5 -96t108.5 -262q0 -82 -36.5 -145.5t-86.5 -92.5q233 -126 233 -419q0 -233 -146.5 -366.5t-385.5 -127.5h-31v229h24q112 2 188 72t77 195q1 122 -77 193t-190 71h-22v223h33q67 0 109 43t42 107 q0 68 -39.5 107.5t-109.5 39.5q-75 0 -110.5 -47.5t-35.5 -114.5v-1118h-274z" />
<glyph unicode="&#xe0;" horiz-adv-x="960" d="M43 358q0 156 104.5 258.5t272.5 102.5q122 0 194 -45v55q0 75 -35 118.5t-108 43.5q-70 0 -101.5 -37t-31.5 -90h-256q5 160 103 252t286 92q115 0 197 -30.5t128.5 -88t67.5 -130.5t21 -169v-690h-230v70q-79 -84 -231 -84q-167 0 -274 102t-107 270zM193 1454h268 l155 -283h-258zM301 360q0 -69 45 -113t115 -44q68 0 112.5 44t44.5 113t-45 112.5t-114 43.5q-70 0 -114 -44.5t-44 -111.5z" />
<glyph unicode="&#xe1;" horiz-adv-x="960" d="M43 358q0 156 104.5 258.5t272.5 102.5q122 0 194 -45v55q0 75 -35 118.5t-108 43.5q-70 0 -101.5 -37t-31.5 -90h-256q5 160 103 252t286 92q115 0 197 -30.5t128.5 -88t67.5 -130.5t21 -169v-690h-230v70q-79 -84 -231 -84q-167 0 -274 102t-107 270zM301 360 q0 -69 45 -113t115 -44q68 0 112.5 44t44.5 113t-45 112.5t-114 43.5q-70 0 -114 -44.5t-44 -111.5zM356 1171l156 283h268l-166 -283h-258z" />
<glyph unicode="&#xe2;" horiz-adv-x="960" d="M43 358q0 156 104.5 258.5t272.5 102.5q122 0 194 -45v55q0 75 -35 118.5t-108 43.5q-70 0 -101.5 -37t-31.5 -90h-256q5 160 103 252t286 92q115 0 197 -30.5t128.5 -88t67.5 -130.5t21 -169v-690h-230v70q-79 -84 -231 -84q-167 0 -274 102t-107 270zM145 1167l197 291 h274l197 -291h-240l-94 127l-94 -127h-240zM301 360q0 -69 45 -113t115 -44q68 0 112.5 44t44.5 113t-45 112.5t-114 43.5q-70 0 -114 -44.5t-44 -111.5z" />
<glyph unicode="&#xe3;" horiz-adv-x="960" d="M43 358q0 156 104.5 258.5t272.5 102.5q122 0 194 -45v55q0 75 -35 118.5t-108 43.5q-70 0 -101.5 -37t-31.5 -90h-256q5 160 103 252t286 92q115 0 197 -30.5t128.5 -88t67.5 -130.5t21 -169v-690h-230v70q-79 -84 -231 -84q-167 0 -274 102t-107 270zM141 1171 q-5 119 55.5 196t165.5 77q47 0 85.5 -17.5t68 -35t53.5 -17.5q52 0 52 72h194q5 -125 -54 -200t-163 -75q-55 0 -119 35t-90 35q-53 0 -53 -70h-195zM301 360q0 -69 45 -113t115 -44q68 0 112.5 44t44.5 113t-45 112.5t-114 43.5q-70 0 -114 -44.5t-44 -111.5z" />
<glyph unicode="&#xe4;" horiz-adv-x="960" d="M43 358q0 156 104.5 258.5t272.5 102.5q122 0 194 -45v55q0 75 -35 118.5t-108 43.5q-70 0 -101.5 -37t-31.5 -90h-256q5 160 103 252t286 92q115 0 197 -30.5t128.5 -88t67.5 -130.5t21 -169v-690h-230v70q-79 -84 -231 -84q-167 0 -274 102t-107 270zM135 1325 q0 62 44 105t108 43q66 0 109.5 -42.5t43.5 -105.5q0 -64 -44.5 -107.5t-108.5 -43.5q-65 0 -108.5 43.5t-43.5 107.5zM301 360q0 -69 45 -113t115 -44q68 0 112.5 44t44.5 113t-45 112.5t-114 43.5q-70 0 -114 -44.5t-44 -111.5zM512 1325q0 62 43.5 105t106.5 43 q67 0 111 -42.5t44 -105.5q0 -64 -45 -107.5t-110 -43.5q-63 0 -106.5 43.5t-43.5 107.5z" />
<glyph unicode="&#xe5;" horiz-adv-x="960" d="M43 358q0 156 104.5 258.5t272.5 102.5q122 0 194 -45v55q0 75 -35 118.5t-108 43.5q-70 0 -101.5 -37t-31.5 -90h-256q5 160 103 252t286 92q115 0 197 -30.5t128.5 -88t67.5 -130.5t21 -169v-690h-230v70q-79 -84 -231 -84q-167 0 -274 102t-107 270zM250 1360 q0 94 63 156.5t158 62.5q102 0 164.5 -61t62.5 -154q0 -95 -62.5 -156t-162.5 -61q-97 0 -160 61t-63 152zM301 360q0 -69 45 -113t115 -44q68 0 112.5 44t44.5 113t-45 112.5t-114 43.5q-70 0 -114 -44.5t-44 -111.5zM383 1364q0 -42 25.5 -69t66.5 -27q39 0 64.5 27 t25.5 69q0 40 -25 66t-67 26q-40 0 -65 -26t-25 -66z" />
<glyph unicode="&#xe6;" horiz-adv-x="1701" d="M43 350q-2 162 102 263.5t275 101.5q126 0 192 -51v65q0 74 -34 118t-107 44q-67 0 -99 -38t-32 -89h-256q5 161 102.5 252.5t286.5 91.5q221 0 309 -143q52 63 144 105t211 42q245 0 388.5 -147t145.5 -394q0 -42 -4 -112h-780q5 -99 79 -166.5t193 -67.5q179 0 268 166 l211 -119q-26 -57 -66.5 -106t-98 -91t-138.5 -66.5t-176 -24.5q-257 0 -403 161q-100 -163 -312 -163q-177 0 -289 100t-112 268zM301 362q0 -69 45 -113t115 -44q68 0 112.5 44t44.5 113t-45 112.5t-114 43.5q-70 0 -114 -44.5t-44 -111.5zM893 657h491q-6 100 -74 163 t-175 63q-104 0 -168 -65.5t-74 -160.5z" />
<glyph unicode="&#xe7;" horiz-adv-x="999" d="M39 545q0 158 72 288t202 205.5t291 75.5q242 0 385 -147l-158 -191q-94 90 -225 90q-133 0 -213 -90t-80 -229q0 -143 86 -230.5t209 -87.5q122 0 230 90l151 -184q-59 -63 -157 -108t-226 -45h-16v-56q160 -44 160 -219q0 -113 -73 -175t-202 -62h-41v155h43 q90 3 90 82q0 38 -24 58t-66 20h-43v219q-183 51 -289 197t-106 344z" />
<glyph unicode="&#xe8;" horiz-adv-x="1146" d="M39 545q0 162 68 292t191.5 203.5t279.5 73.5q246 0 391 -148t145 -395q0 -65 -4 -112h-782q11 -109 83 -171.5t189 -62.5q173 0 277 164l202 -123q-27 -55 -66.5 -102.5t-97 -90t-139 -67t-176.5 -24.5q-252 0 -406.5 152.5t-154.5 410.5zM295 1454h268l156 -283h-258z M334 666h495q-9 95 -77 156t-177 61q-102 0 -166 -60.5t-75 -156.5z" />
<glyph unicode="&#xe9;" horiz-adv-x="1146" d="M39 545q0 162 68 292t191.5 203.5t279.5 73.5q246 0 391 -148t145 -395q0 -65 -4 -112h-782q11 -109 83 -171.5t189 -62.5q173 0 277 164l202 -123q-27 -55 -66.5 -102.5t-97 -90t-139 -67t-176.5 -24.5q-252 0 -406.5 152.5t-154.5 410.5zM334 666h495q-9 95 -77 156 t-177 61q-102 0 -166 -60.5t-75 -156.5zM453 1171l155 283h269l-166 -283h-258z" />
<glyph unicode="&#xea;" horiz-adv-x="1146" d="M39 545q0 162 68 292t191.5 203.5t279.5 73.5q246 0 391 -148t145 -395q0 -65 -4 -112h-782q11 -109 83 -171.5t189 -62.5q173 0 277 164l202 -123q-27 -55 -66.5 -102.5t-97 -90t-139 -67t-176.5 -24.5q-252 0 -406.5 152.5t-154.5 410.5zM240 1167l196 291h275 l196 -291h-239l-95 127l-94 -127h-239zM334 666h495q-9 95 -77 156t-177 61q-102 0 -166 -60.5t-75 -156.5z" />
<glyph unicode="&#xeb;" horiz-adv-x="1146" d="M39 545q0 162 68 292t191.5 203.5t279.5 73.5q246 0 391 -148t145 -395q0 -65 -4 -112h-782q11 -109 83 -171.5t189 -62.5q173 0 277 164l202 -123q-27 -55 -66.5 -102.5t-97 -90t-139 -67t-176.5 -24.5q-252 0 -406.5 152.5t-154.5 410.5zM238 1325q0 62 43.5 105 t107.5 43q66 0 110 -42.5t44 -105.5q0 -64 -45 -107.5t-109 -43.5q-65 0 -108 43t-43 108zM334 666h495q-9 95 -77 156t-177 61q-102 0 -166 -60.5t-75 -156.5zM614 1325q0 62 43.5 105t106.5 43q67 0 111.5 -42.5t44.5 -105.5q0 -64 -45.5 -107.5t-110.5 -43.5 q-63 0 -106.5 43.5t-43.5 107.5z" />
<glyph unicode="&#xec;" horiz-adv-x="434" d="M-78 1454h268l156 -283h-258zM80 0v1096h274v-1096h-274z" />
<glyph unicode="&#xed;" horiz-adv-x="434" d="M80 0v1096h274v-1096h-274zM92 1171l156 283h268l-166 -283h-258z" />
<glyph unicode="&#xee;" horiz-adv-x="434" d="M-109 1167l189 291h274l191 -291h-240l-88 127l-88 -127h-238zM80 0v1096h274v-1096h-274z" />
<glyph unicode="&#xef;" horiz-adv-x="434" d="M-117 1325q0 62 44 105t108 43q66 0 109.5 -42.5t43.5 -105.5q0 -64 -44.5 -107.5t-108.5 -43.5q-65 0 -108.5 43.5t-43.5 107.5zM80 0v1096h274v-1096h-274zM248 1325q0 62 43 105t106 43q67 0 111.5 -42.5t44.5 -105.5q0 -64 -45.5 -107.5t-110.5 -43.5 q-63 0 -106 43.5t-43 107.5z" />
<glyph unicode="&#xf0;" horiz-adv-x="1224" d="M39 543q0 127 44.5 231.5t120.5 172.5t174.5 105.5t207.5 39.5q11 0 26 -5l-82 97l-243 -66l-51 191l157 43l-121 145h312l67 -76l213 58l51 -191l-116 -33l147 -163q119 -134 178.5 -259t59.5 -272q0 -164 -69.5 -295.5t-198.5 -207.5t-295 -76q-256 0 -419 156.5 t-163 404.5zM313 545q0 -138 84 -227t215 -89q135 0 216 88.5t81 227.5q0 138 -83.5 227.5t-215.5 89.5q-133 0 -215 -89.5t-82 -227.5z" />
<glyph unicode="&#xf1;" horiz-adv-x="1003" d="M80 0v1096h274v-82q29 36 86 65t146 29q93 0 161 -30t106.5 -84t56.5 -121t18 -150v-723h-275v690q0 82 -37 128t-110 46q-72 0 -112 -47t-40 -127v-690h-274zM160 1171q-5 119 55.5 196t165.5 77q47 0 85.5 -17.5t68 -35t53.5 -17.5q51 0 51 72h195q5 -125 -54.5 -200 t-163.5 -75q-43 0 -82 17.5t-70.5 35t-55.5 17.5q-54 0 -54 -70h-194z" />
<glyph unicode="&#xf2;" horiz-adv-x="1222" d="M39 545q0 245 162 407t409 162q170 0 301.5 -73.5t202 -202t70.5 -289.5q0 -160 -72.5 -289t-204 -203.5t-297.5 -74.5q-254 0 -412.5 159t-158.5 404zM313 547q0 -139 84 -228.5t215 -89.5q133 0 215 90t82 228t-84 228.5t-215 90.5q-133 0 -215 -89.5t-82 -229.5z M330 1454h268l156 -283h-258z" />
<glyph unicode="&#xf3;" horiz-adv-x="1222" d="M39 545q0 245 162 407t409 162q170 0 301.5 -73.5t202 -202t70.5 -289.5q0 -160 -72.5 -289t-204 -203.5t-297.5 -74.5q-254 0 -412.5 159t-158.5 404zM313 547q0 -139 84 -228.5t215 -89.5q133 0 215 90t82 228t-84 228.5t-215 90.5q-133 0 -215 -89.5t-82 -229.5z M481 1171l156 283h268l-166 -283h-258z" />
<glyph unicode="&#xf4;" horiz-adv-x="1222" d="M39 545q0 245 162 407t409 162q170 0 301.5 -73.5t202 -202t70.5 -289.5q0 -160 -72.5 -289t-204 -203.5t-297.5 -74.5q-254 0 -412.5 159t-158.5 404zM276 1167l197 291h275l196 -291h-239l-95 127l-94 -127h-240zM313 547q0 -139 84 -228.5t215 -89.5q133 0 215 90 t82 228t-84 228.5t-215 90.5q-133 0 -215 -89.5t-82 -229.5z" />
<glyph unicode="&#xf5;" horiz-adv-x="1222" d="M39 545q0 245 162 407t409 162q170 0 301.5 -73.5t202 -202t70.5 -289.5q0 -160 -72.5 -289t-204 -203.5t-297.5 -74.5q-254 0 -412.5 159t-158.5 404zM274 1171q-5 119 56 196t166 77q47 0 85.5 -17.5t67.5 -35t53 -17.5q52 0 52 72h194q5 -125 -54 -200t-163 -75 q-55 0 -119 35t-90 35q-53 0 -53 -70h-195zM313 547q0 -139 84 -228.5t215 -89.5q133 0 215 90t82 228t-84 228.5t-215 90.5q-133 0 -215 -89.5t-82 -229.5z" />
<glyph unicode="&#xf6;" horiz-adv-x="1222" d="M39 545q0 245 162 407t409 162q170 0 301.5 -73.5t202 -202t70.5 -289.5q0 -160 -72.5 -289t-204 -203.5t-297.5 -74.5q-254 0 -412.5 159t-158.5 404zM268 1325q0 62 44 105t108 43q66 0 109.5 -42.5t43.5 -105.5q0 -64 -44.5 -107.5t-108.5 -43.5q-65 0 -108.5 43.5 t-43.5 107.5zM313 547q0 -139 84 -228.5t215 -89.5q133 0 215 90t82 228t-84 228.5t-215 90.5q-133 0 -215 -89.5t-82 -229.5zM645 1325q0 62 43.5 105t106.5 43q67 0 111 -42.5t44 -105.5q0 -64 -45 -107.5t-110 -43.5q-63 0 -106.5 43.5t-43.5 107.5z" />
<glyph unicode="&#xf7;" horiz-adv-x="962" d="M55 575v230h850v-230h-850zM324 330q0 66 45.5 111.5t111.5 45.5q67 0 112.5 -45.5t45.5 -111.5t-46 -112t-112 -46t-111.5 46t-45.5 112zM324 1047q0 65 45.5 110t111.5 45q67 0 112.5 -45t45.5 -110q0 -66 -46 -113t-112 -47t-111.5 47t-45.5 113z" />
<glyph unicode="&#xf8;" horiz-adv-x="1222" d="M39 547q0 245 162 406t409 161q161 0 293 -76l78 90l152 -127l-76 -88q127 -152 127 -364q0 -160 -72.5 -289t-204 -203.5t-297.5 -74.5q-176 0 -293 75l-84 -96l-147 127l80 92q-127 146 -127 367zM305 547q0 -92 35 -164l401 467q-63 29 -131 29q-140 0 -222.5 -93 t-82.5 -239zM479 246q63 -29 133 -29q139 0 222.5 92.5t83.5 237.5q0 94 -37 164z" />
<glyph unicode="&#xf9;" horiz-adv-x="997" d="M76 375v721h274v-688q0 -82 35.5 -128.5t106.5 -46.5q72 0 111.5 48.5t39.5 128.5v686h275v-1096h-273v82q-29 -37 -86 -65.5t-143 -28.5q-89 0 -155.5 28.5t-106.5 81.5t-59 122t-19 155zM223 1454h269l155 -283h-258z" />
<glyph unicode="&#xfa;" horiz-adv-x="997" d="M76 375v721h274v-688q0 -82 35.5 -128.5t106.5 -46.5q72 0 111.5 48.5t39.5 128.5v686h275v-1096h-273v82q-29 -37 -86 -65.5t-143 -28.5q-89 0 -155.5 28.5t-106.5 81.5t-59 122t-19 155zM358 1171l156 283h268l-166 -283h-258z" />
<glyph unicode="&#xfb;" horiz-adv-x="997" d="M76 375v721h274v-688q0 -82 35.5 -128.5t106.5 -46.5q72 0 111.5 48.5t39.5 128.5v686h275v-1096h-273v82q-29 -37 -86 -65.5t-143 -28.5q-89 0 -155.5 28.5t-106.5 81.5t-59 122t-19 155zM164 1167l196 291h275l196 -291h-239l-94 127l-95 -127h-239z" />
<glyph unicode="&#xfc;" horiz-adv-x="997" d="M76 375v721h274v-688q0 -82 35.5 -128.5t106.5 -46.5q72 0 111.5 48.5t39.5 128.5v686h275v-1096h-273v82q-29 -37 -86 -65.5t-143 -28.5q-89 0 -155.5 28.5t-106.5 81.5t-59 122t-19 155zM152 1325q0 62 43.5 105t107.5 43q66 0 110 -42.5t44 -105.5q0 -64 -45 -107.5 t-109 -43.5q-65 0 -108 43t-43 108zM528 1325q0 62 43.5 105t106.5 43q67 0 111.5 -42.5t44.5 -105.5q0 -64 -45.5 -107.5t-110.5 -43.5q-63 0 -106.5 43.5t-43.5 107.5z" />
<glyph unicode="&#xfd;" horiz-adv-x="1085" d="M-2 1096h303l256 -680l248 680h282l-552 -1454h-267l148 401zM412 1171l155 283h269l-166 -283h-258z" />
<glyph unicode="&#xfe;" horiz-adv-x="1263" d="M80 -360v1855h274v-500q50 49 134 84t190 35q250 0 398.5 -156t148.5 -407q0 -159 -68 -287.5t-198 -205t-300 -76.5q-96 0 -176.5 31.5t-128.5 72.5v-446h-274zM346 547q0 -141 83.5 -231.5t217.5 -90.5q137 0 219 90t82 232q0 141 -83.5 232t-219.5 91t-217.5 -90.5 t-81.5 -232.5z" />
<glyph unicode="&#xff;" horiz-adv-x="1085" d="M-2 1096h303l256 -680l248 680h282l-552 -1454h-267l148 401zM215 1325q0 62 44 105t108 43q66 0 109.5 -42.5t43.5 -105.5q0 -64 -44.5 -107.5t-108.5 -43.5q-65 0 -108.5 43.5t-43.5 107.5zM592 1325q0 62 43 105t106 43q67 0 111.5 -42.5t44.5 -105.5 q0 -64 -45.5 -107.5t-110.5 -43.5q-63 0 -106 43.5t-43 107.5z" />
<glyph unicode="&#x152;" horiz-adv-x="1497" d="M47 711q0 322 200 514t544 192h634v-266h-364v-295h354v-262h-354v-328h371v-266h-641q-347 0 -545.5 193.5t-198.5 517.5zM344 711q0 -213 116 -330t316 -115v885q-203 2 -317.5 -112.5t-114.5 -327.5z" />
<glyph unicode="&#x153;" horiz-adv-x="2011" d="M39 545q0 245 162 407t409 162q135 0 247 -52.5t185 -146.5q71 93 174 145t228 52q245 0 388.5 -147t145.5 -394q0 -42 -4 -112h-780q5 -99 79 -166.5t193 -67.5q180 0 269 166l211 -119q-26 -57 -66.5 -106t-98.5 -91t-139 -66.5t-176 -24.5q-278 0 -428 192 q-76 -92 -186.5 -143t-241.5 -51q-254 0 -412.5 159t-158.5 404zM313 547q0 -139 84 -228.5t215 -89.5q133 0 215 90t82 228q0 139 -84 229t-215 90q-133 0 -215 -89.5t-82 -229.5zM1200 657h492q-6 100 -74.5 163t-175.5 63q-104 0 -168 -65.5t-74 -160.5z" />
<glyph unicode="&#x178;" horiz-adv-x="1044" d="M-18 1417h317l229 -430l234 430h301l-401 -704v-713h-285v709zM174 1628q0 63 43.5 106.5t106.5 43.5q66 0 110.5 -43.5t44.5 -106.5q0 -64 -45 -106.5t-110 -42.5q-63 0 -106.5 42.5t-43.5 106.5zM578 1628q0 63 43.5 106.5t107.5 43.5q66 0 110 -43.5t44 -106.5 q0 -64 -44.5 -106.5t-109.5 -42.5t-108 42.5t-43 106.5z" />
<glyph unicode="&#x2c6;" horiz-adv-x="819" d="M76 1167l196 291h275l196 -291h-239l-94 127l-95 -127h-239z" />
<glyph unicode="&#x2dc;" horiz-adv-x="819" d="M72 1171q-5 119 55.5 196t165.5 77q47 0 85.5 -17.5t68 -35t53.5 -17.5q51 0 51 72h194q5 -125 -54 -200t-163 -75q-55 0 -119 35t-90 35q-53 0 -53 -70h-194z" />
<glyph unicode="&#x2000;" horiz-adv-x="948" />
<glyph unicode="&#x2001;" horiz-adv-x="1896" />
<glyph unicode="&#x2002;" horiz-adv-x="948" />
<glyph unicode="&#x2003;" horiz-adv-x="1896" />
<glyph unicode="&#x2004;" horiz-adv-x="632" />
<glyph unicode="&#x2005;" horiz-adv-x="474" />
<glyph unicode="&#x2006;" horiz-adv-x="316" />
<glyph unicode="&#x2007;" horiz-adv-x="316" />
<glyph unicode="&#x2008;" horiz-adv-x="237" />
<glyph unicode="&#x2009;" horiz-adv-x="379" />
<glyph unicode="&#x200a;" horiz-adv-x="105" />
<glyph unicode="&#x2010;" horiz-adv-x="626" d="M63 457v258h500v-258h-500z" />
<glyph unicode="&#x2011;" horiz-adv-x="626" d="M63 457v258h500v-258h-500z" />
<glyph unicode="&#x2012;" horiz-adv-x="626" d="M63 457v258h500v-258h-500z" />
<glyph unicode="&#x2013;" horiz-adv-x="1251" d="M63 469v225h1125v-225h-1125z" />
<glyph unicode="&#x2014;" horiz-adv-x="1947" d="M63 469v225h1821v-225h-1821z" />
<glyph unicode="&#x2018;" horiz-adv-x="415" d="M37 1042q0 69 43 154l100 221h189l-105 -219q51 -16 84 -56t33 -100q0 -73 -47.5 -122.5t-124.5 -49.5q-76 0 -124 49t-48 123z" />
<glyph unicode="&#x2019;" horiz-adv-x="415" d="M35 1262q0 73 47.5 122.5t124.5 49.5q76 0 123 -49t47 -123q0 -66 -41 -156l-103 -219h-186l105 219q-52 16 -84.5 56t-32.5 100z" />
<glyph unicode="&#x201a;" horiz-adv-x="415" d="M35 162q0 73 47.5 122.5t124.5 49.5q76 0 123 -49t47 -123q0 -66 -41 -156l-103 -219h-186l105 219q-52 16 -84.5 56t-32.5 100z" />
<glyph unicode="&#x201c;" horiz-adv-x="817" d="M37 1042q0 69 43 154l100 221h189l-105 -219q51 -16 84 -56t33 -100q0 -73 -47.5 -122.5t-124.5 -49.5q-76 0 -124 49t-48 123zM438 1042q0 69 43 154l101 221h188l-104 -219q51 -16 83.5 -56t32.5 -100q0 -73 -47.5 -122.5t-124.5 -49.5q-76 0 -124 49t-48 123z" />
<glyph unicode="&#x201d;" horiz-adv-x="817" d="M35 1262q0 73 47.5 122.5t124.5 49.5q76 0 123 -49t47 -123q0 -66 -41 -156l-103 -219h-186l105 219q-52 16 -84.5 56t-32.5 100zM436 1262q0 73 47.5 122.5t124.5 49.5q76 0 123 -49t47 -123q0 -66 -41 -156l-102 -219h-186l104 219q-52 16 -84.5 56t-32.5 100z" />
<glyph unicode="&#x201e;" horiz-adv-x="819" d="M35 162q0 73 47.5 122.5t124.5 49.5q76 0 123 -49t47 -123q0 -66 -41 -156l-103 -219h-186l105 219q-52 16 -84.5 56t-32.5 100zM438 162q0 73 47.5 122.5t124.5 49.5q76 0 123 -49t47 -123q0 -66 -41 -156l-102 -219h-186l104 219q-52 16 -84.5 56t-32.5 100z" />
<glyph unicode="&#x2022;" horiz-adv-x="659" d="M41 608q0 122 84 206.5t205 84.5q120 0 204 -85t84 -206q0 -120 -84 -204.5t-204 -84.5q-121 0 -205 84.5t-84 204.5z" />
<glyph unicode="&#x2026;" horiz-adv-x="1329" d="M39 154q0 75 49.5 125.5t124.5 50.5t124.5 -50.5t49.5 -125.5q0 -74 -50 -125.5t-124 -51.5q-73 0 -123.5 51.5t-50.5 125.5zM489 154q0 75 50 125.5t125 50.5t124.5 -50.5t49.5 -125.5q0 -74 -50 -125.5t-124 -51.5q-73 0 -124 51.5t-51 125.5zM942 154q0 75 49.5 125.5 t124.5 50.5t124.5 -50.5t49.5 -125.5q0 -74 -50 -125.5t-124 -51.5q-73 0 -123.5 51.5t-50.5 125.5z" />
<glyph unicode="&#x202f;" horiz-adv-x="379" />
<glyph unicode="&#x2039;" horiz-adv-x="454" d="M29 549l164 350h235l-168 -350l168 -346h-235z" />
<glyph unicode="&#x203a;" horiz-adv-x="454" d="M29 203l166 348l-166 348h233l166 -348l-166 -348h-233z" />
<glyph unicode="&#x205f;" horiz-adv-x="474" />
<glyph unicode="&#x20ac;" horiz-adv-x="1343" d="M39 444v205h90q-2 18 -2 58q0 46 2 71h-90v205h133q75 209 253 333t423 124q281 0 465 -160l-168 -207q-124 111 -301 111q-109 0 -196.5 -40t-137.5 -116q-6 -9 -27 -45h412v-205h-469q-2 -23 -2 -69q0 -42 2 -60h469v-205h-410q16 -32 37 -59q53 -72 139.5 -109.5 t192.5 -37.5q160 0 297 114l168 -190q-191 -182 -465 -182q-258 0 -437.5 125.5t-250.5 338.5h-127z" />
<glyph unicode="&#x2122;" horiz-adv-x="1282" d="M43 1260v157h383v-157h-104v-420h-175v420h-104zM487 840v577h256l125 -373l123 373h248v-577h-164v374l-125 -374h-172l-129 372v-372h-162z" />
<glyph unicode="&#xe000;" horiz-adv-x="1095" d="M0 0v1096h1096v-1096h-1096z" />
<glyph unicode="&#xfb01;" horiz-adv-x="1009" d="M25 864v232h102v49q0 172 80.5 263t267.5 91q47 0 74 -2v-229h-37q-63 0 -87 -33.5t-24 -91.5v-47h148v-232h-148v-864h-274v864h-102zM627 1327q0 69 47 117.5t114 48.5q69 0 117.5 -48.5t48.5 -117.5q0 -67 -48.5 -114.5t-117.5 -47.5q-67 0 -114 47t-47 115zM655 0 v1096h275v-1096h-275z" />
<glyph unicode="&#xfb02;" horiz-adv-x="1009" d="M25 864v232h102v49q0 172 80.5 263t267.5 91q47 0 74 -2v-229h-37q-63 0 -87 -33.5t-24 -91.5v-47h148v-232h-148v-864h-274v864h-102zM655 0v1497h275v-1497h-275z" />
</font>
</defs>
</svg>
